<svg width="928" height="247" viewBox="0 0 928 247" fill="none" xmlns="http://www.w3.org/2000/svg">
<rect width="928" height="247" fill="white"/>
<path d="M883 89L868 97.6603L868 80.3397L883 89Z" fill="url(#paint0_linear_754:91208)"/>
<rect x="72" y="120" width="798" height="6" rx="3" fill="url(#paint1_linear_754:91208)"/>
<circle cx="75" cy="123" r="12.5" fill="white" stroke="url(#paint2_linear_754:91208)"/>
<rect width="46" height="2" rx="0.999999" transform="matrix(-4.37114e-08 -1 -1 4.37114e-08 340 124)" fill="url(#paint3_linear_754:91208)"/>
<rect width="46" height="2" rx="0.999999" transform="matrix(-4.37114e-08 -1 -1 4.37114e-08 76 123)" fill="url(#paint4_linear_754:91208)"/>
<rect width="46" height="2" rx="0.999999" transform="matrix(-4.37114e-08 -1 -1 4.37114e-08 208 169)" fill="url(#paint5_linear_754:91208)"/>
<rect width="44" height="2" rx="0.999999" transform="matrix(-4.37114e-08 -1 -1 4.37114e-08 473 167)" fill="url(#paint6_linear_754:91208)"/>
<rect width="44" height="2" rx="0.999999" transform="matrix(-4.37114e-08 -1 -1 4.37114e-08 737 167)" fill="url(#paint7_linear_754:91208)"/>
<rect width="45" height="2" rx="0.999999" transform="matrix(-4.37114e-08 -1 -1 4.37114e-08 605 122)" fill="url(#paint8_linear_754:91208)"/>
<rect width="18.1163" height="2" rx="0.999999" transform="matrix(0.707107 -0.707107 -0.707107 -0.707107 339.414 80.2244)" fill="url(#paint9_linear_754:91208)"/>
<rect width="18.1163" height="2" rx="0.999999" transform="matrix(0.707107 -0.707107 -0.707107 -0.707107 75.4141 79.2244)" fill="url(#paint10_linear_754:91208)"/>
<rect width="18.1163" height="2" rx="0.999999" transform="matrix(0.707107 -0.707107 -0.707107 -0.707107 63.4141 104.224)" fill="url(#paint11_linear_754:91208)"/>
<rect width="40" height="2" rx="1" transform="matrix(-2.18557e-08 -1 -1 2.18557e-08 868 118)" fill="url(#paint12_linear_754:91208)"/>
<rect width="18.1163" height="2" rx="0.999999" transform="matrix(0.707107 0.707107 0.707107 -0.707107 471 166.414)" fill="url(#paint13_linear_754:91208)"/>
<rect width="18.1163" height="2" rx="0.999999" transform="matrix(0.707107 0.707107 0.707107 -0.707107 735 166.414)" fill="url(#paint14_linear_754:91208)"/>
<rect x="735" y="164.586" width="18.1163" height="2" rx="0.999999" transform="rotate(-45 735 164.586)" fill="url(#paint15_linear_754:91208)"/>
<rect width="18.1163" height="2" rx="0.999999" transform="matrix(0.707107 0.707107 0.707107 -0.707107 616 91.4143)" fill="url(#paint16_linear_754:91208)"/>
<rect width="18.1163" height="2" rx="0.999999" transform="matrix(0.707107 -0.707107 -0.707107 -0.707107 459.414 159.224)" fill="url(#paint17_linear_754:91208)"/>
<rect width="18.1163" height="2" rx="0.999999" transform="matrix(-4.37114e-08 -1 -1 4.37114e-08 208 187.116)" fill="url(#paint18_linear_754:91208)"/>
<rect width="18.1163" height="2" rx="0.999999" transform="matrix(0.5 -0.866025 -0.866025 -0.5 197.732 186.403)" fill="url(#paint19_linear_754:91208)"/>
<rect width="18.1163" height="2" rx="0.999999" transform="matrix(0.707107 0.707107 0.707107 -0.707107 603 78.4143)" fill="url(#paint20_linear_754:91208)"/>
<rect width="18.1163" height="2" rx="0.999999" transform="matrix(0.707107 -0.707107 -0.707107 -0.707107 604.414 105.224)" fill="url(#paint21_linear_754:91208)"/>
<rect width="18.1163" height="2" rx="0.999999" transform="matrix(0.707107 -0.707107 -0.707107 -0.707107 604.414 79.2244)" fill="url(#paint22_linear_754:91208)"/>
<circle cx="339" cy="123" r="7" fill="white" stroke="url(#paint23_linear_754:91208)" stroke-width="4"/>
<circle cx="75" cy="123" r="7" fill="white" stroke="url(#paint24_linear_754:91208)" stroke-width="4"/>
<circle cx="207" cy="123" r="7" fill="white" stroke="url(#paint25_linear_754:91208)" stroke-width="4"/>
<circle cx="471" cy="123" r="7" fill="white" stroke="url(#paint26_linear_754:91208)" stroke-width="4"/>
<circle cx="735" cy="123" r="7" fill="white" stroke="url(#paint27_linear_754:91208)" stroke-width="4"/>
<circle cx="603" cy="123" r="7" fill="white" stroke="url(#paint28_linear_754:91208)" stroke-width="4"/>
<circle cx="867" cy="123" r="7" fill="white" stroke="url(#paint29_linear_754:91208)" stroke-width="4"/>
<circle r="2" transform="matrix(1 0 0 -1 63 103)" fill="white" stroke="url(#paint30_linear_754:91208)" stroke-width="2"/>
<circle r="2" transform="matrix(0.707107 -0.707107 -0.707107 -0.707107 867.242 78.2427)" fill="white" stroke="url(#paint31_linear_754:91208)" stroke-width="2"/>
<circle r="2" transform="matrix(1 0 0 -1 351 67)" fill="white" stroke="url(#paint32_linear_754:91208)" stroke-width="2"/>
<circle r="2" transform="matrix(1 0 0 -1 207 169)" fill="white" stroke="url(#paint33_linear_754:91208)" stroke-width="2"/>
<circle r="2" transform="matrix(1 0 0 -1 87 67)" fill="white" stroke="url(#paint34_linear_754:91208)" stroke-width="2"/>
<circle r="2" transform="matrix(1 0 0 -1 485 179)" fill="white" stroke="url(#paint35_linear_754:91208)" stroke-width="2"/>
<circle r="2" transform="matrix(1 0 0 -1 749 179)" fill="white" stroke="url(#paint36_linear_754:91208)" stroke-width="2"/>
<circle cx="749" cy="152" r="2" fill="white" stroke="url(#paint37_linear_754:91208)" stroke-width="2"/>
<circle r="2" transform="matrix(1 0 0 -1 617 91)" fill="white" stroke="url(#paint38_linear_754:91208)" stroke-width="2"/>
<circle r="2" transform="matrix(1 0 0 -1 616 67)" fill="white" stroke="url(#paint39_linear_754:91208)" stroke-width="2"/>
<circle r="2" transform="matrix(1 0 0 -1 458 159)" fill="white" stroke="url(#paint40_linear_754:91208)" stroke-width="2"/>
<path d="M375.404 41.2C376.272 41.2 377.023 41.3447 377.658 41.634C378.302 41.9233 378.797 42.334 379.142 42.866C379.487 43.398 379.66 44.028 379.66 44.756C379.66 45.4747 379.487 46.1047 379.142 46.646C378.797 47.178 378.302 47.5887 377.658 47.878C377.023 48.158 376.272 48.298 375.404 48.298H373.43V51H371.162V41.2H375.404ZM375.278 46.45C375.959 46.45 376.477 46.3053 376.832 46.016C377.187 45.7173 377.364 45.2973 377.364 44.756C377.364 44.2053 377.187 43.7853 376.832 43.496C376.477 43.1973 375.959 43.048 375.278 43.048H373.43V46.45H375.278ZM388.867 49.18V51H381.279V41.2H388.685V43.02H383.533V45.148H388.083V46.912H383.533V49.18H388.867ZM399.66 41.2V51H397.798L392.912 45.05V51H390.672V41.2H392.548L397.42 47.15V41.2H399.66ZM406.682 47.528V51H404.414V47.5L400.62 41.2H403.028L405.646 45.554L408.264 41.2H410.49L406.682 47.528ZM411.344 41.2H413.612V51H411.344V41.2ZM419.157 51.168C418.383 51.168 417.631 51.0653 416.903 50.86C416.185 50.6453 415.606 50.37 415.167 50.034L415.937 48.326C416.357 48.634 416.857 48.8813 417.435 49.068C418.014 49.2547 418.593 49.348 419.171 49.348C419.815 49.348 420.291 49.2547 420.599 49.068C420.907 48.872 421.061 48.6153 421.061 48.298C421.061 48.0647 420.968 47.8733 420.781 47.724C420.604 47.5653 420.371 47.4393 420.081 47.346C419.801 47.2527 419.419 47.15 418.933 47.038C418.187 46.8607 417.575 46.6833 417.099 46.506C416.623 46.3287 416.213 46.044 415.867 45.652C415.531 45.26 415.363 44.7373 415.363 44.084C415.363 43.5147 415.517 43.0013 415.825 42.544C416.133 42.0773 416.595 41.7087 417.211 41.438C417.837 41.1673 418.597 41.032 419.493 41.032C420.119 41.032 420.73 41.1067 421.327 41.256C421.925 41.4053 422.447 41.62 422.895 41.9L422.195 43.622C421.29 43.1087 420.385 42.852 419.479 42.852C418.845 42.852 418.373 42.9547 418.065 43.16C417.767 43.3653 417.617 43.636 417.617 43.972C417.617 44.308 417.79 44.56 418.135 44.728C418.49 44.8867 419.027 45.0453 419.745 45.204C420.492 45.3813 421.103 45.5587 421.579 45.736C422.055 45.9133 422.461 46.1933 422.797 46.576C423.143 46.9587 423.315 47.4767 423.315 48.13C423.315 48.69 423.157 49.2033 422.839 49.67C422.531 50.1273 422.065 50.4913 421.439 50.762C420.814 51.0327 420.053 51.168 419.157 51.168ZM424.865 41.2H427.133V51H424.865V41.2ZM438.447 41.2V51H436.179V46.982H431.727V51H429.459V41.2H431.727V45.064H436.179V41.2H438.447ZM447.22 48.9H442.67L441.802 51H439.478L443.846 41.2H446.086L450.468 51H448.088L447.22 48.9ZM446.506 47.178L444.952 43.426L443.398 47.178H446.506ZM460.472 41.2V51H458.61L453.724 45.05V51H451.484V41.2H453.36L458.232 47.15V41.2H460.472ZM375.908 72.168C374.891 72.168 373.971 71.9487 373.15 71.51C372.338 71.0713 371.699 70.4693 371.232 69.704C370.775 68.9293 370.546 68.0613 370.546 67.1C370.546 66.1387 370.775 65.2753 371.232 64.51C371.699 63.7353 372.338 63.1287 373.15 62.69C373.971 62.2513 374.891 62.032 375.908 62.032C376.925 62.032 377.84 62.2513 378.652 62.69C379.464 63.1287 380.103 63.7353 380.57 64.51C381.037 65.2753 381.27 66.1387 381.27 67.1C381.27 68.0613 381.037 68.9293 380.57 69.704C380.103 70.4693 379.464 71.0713 378.652 71.51C377.84 71.9487 376.925 72.168 375.908 72.168ZM375.908 70.236C376.487 70.236 377.009 70.1053 377.476 69.844C377.943 69.5733 378.307 69.2 378.568 68.724C378.839 68.248 378.974 67.7067 378.974 67.1C378.974 66.4933 378.839 65.952 378.568 65.476C378.307 65 377.943 64.6313 377.476 64.37C377.009 64.0993 376.487 63.964 375.908 63.964C375.329 63.964 374.807 64.0993 374.34 64.37C373.873 64.6313 373.505 65 373.234 65.476C372.973 65.952 372.842 66.4933 372.842 67.1C372.842 67.7067 372.973 68.248 373.234 68.724C373.505 69.2 373.873 69.5733 374.34 69.844C374.807 70.1053 375.329 70.236 375.908 70.236ZM391.963 62.2V72H390.101L385.215 66.05V72H382.975V62.2H384.851L389.722 68.15V62.2H391.963ZM394.281 62.2H396.549V70.152H401.463V72H394.281V62.2ZM402.73 62.2H404.998V72H402.73V62.2ZM416.312 62.2V72H414.45L409.564 66.05V72H407.324V62.2H409.2L414.072 68.15V62.2H416.312ZM426.219 70.18V72H418.631V62.2H426.037V64.02H420.885V66.148H425.435V67.912H420.885V70.18H426.219Z" fill="url(#paint41_linear_754:91208)"/>
<path d="M498.192 167.048H495.056V165.2H503.596V167.048H500.46V175H498.192V167.048ZM512.404 173.18V175H504.816V165.2H512.222V167.02H507.07V169.148H511.62V170.912H507.07V173.18H512.404ZM518.872 175.168C517.873 175.168 516.968 174.953 516.156 174.524C515.353 174.085 514.718 173.483 514.252 172.718C513.794 171.943 513.566 171.071 513.566 170.1C513.566 169.129 513.794 168.261 514.252 167.496C514.718 166.721 515.353 166.119 516.156 165.69C516.968 165.251 517.878 165.032 518.886 165.032C519.735 165.032 520.5 165.181 521.182 165.48C521.872 165.779 522.451 166.208 522.918 166.768L521.462 168.112C520.799 167.347 519.978 166.964 518.998 166.964C518.391 166.964 517.85 167.099 517.374 167.37C516.898 167.631 516.524 168 516.254 168.476C515.992 168.952 515.862 169.493 515.862 170.1C515.862 170.707 515.992 171.248 516.254 171.724C516.524 172.2 516.898 172.573 517.374 172.844C517.85 173.105 518.391 173.236 518.998 173.236C519.978 173.236 520.799 172.849 521.462 172.074L522.918 173.418C522.451 173.987 521.872 174.421 521.182 174.72C520.491 175.019 519.721 175.168 518.872 175.168ZM533.437 165.2V175H531.169V170.982H526.717V175H524.449V165.2H526.717V169.064H531.169V165.2H533.437ZM544.744 165.2V175H542.882L537.996 169.05V175H535.756V165.2H537.632L542.504 171.15V165.2H544.744ZM547.062 165.2H549.33V175H547.062V165.2ZM556.346 175.168C555.347 175.168 554.442 174.953 553.63 174.524C552.827 174.085 552.193 173.483 551.726 172.718C551.269 171.943 551.04 171.071 551.04 170.1C551.04 169.129 551.269 168.261 551.726 167.496C552.193 166.721 552.827 166.119 553.63 165.69C554.442 165.251 555.352 165.032 556.36 165.032C557.209 165.032 557.975 165.181 558.656 165.48C559.347 165.779 559.925 166.208 560.392 166.768L558.936 168.112C558.273 167.347 557.452 166.964 556.472 166.964C555.865 166.964 555.324 167.099 554.848 167.37C554.372 167.631 553.999 168 553.728 168.476C553.467 168.952 553.336 169.493 553.336 170.1C553.336 170.707 553.467 171.248 553.728 171.724C553.999 172.2 554.372 172.573 554.848 172.844C555.324 173.105 555.865 173.236 556.472 173.236C557.452 173.236 558.273 172.849 558.936 172.074L560.392 173.418C559.925 173.987 559.347 174.421 558.656 174.72C557.965 175.019 557.195 175.168 556.346 175.168ZM568.186 172.9H563.636L562.768 175H560.444L564.812 165.2H567.052L571.434 175H569.054L568.186 172.9ZM567.472 171.178L565.918 167.426L564.364 171.178H567.472ZM572.451 165.2H574.719V173.152H579.633V175H572.451V165.2ZM505.08 196L505.066 190.12L502.182 194.964H501.16L498.29 190.246V196H496.162V186.2H498.038L501.706 192.29L505.318 186.2H507.18L507.208 196H505.08ZM517.121 194.18V196H509.533V186.2H516.939V188.02H511.787V190.148H516.337V191.912H511.787V194.18H517.121ZM526.514 194.18V196H518.926V186.2H526.332V188.02H521.18V190.148H525.73V191.912H521.18V194.18H526.514ZM530.348 188.048H527.212V186.2H535.752V188.048H532.616V196H530.348V188.048ZM536.973 186.2H539.241V196H536.973V186.2ZM550.554 186.2V196H548.692L543.806 190.05V196H541.566V186.2H543.442L548.314 192.15V186.2H550.554ZM559.495 190.946H561.567V194.922C561.035 195.323 560.419 195.631 559.719 195.846C559.019 196.061 558.314 196.168 557.605 196.168C556.588 196.168 555.673 195.953 554.861 195.524C554.049 195.085 553.41 194.483 552.943 193.718C552.486 192.943 552.257 192.071 552.257 191.1C552.257 190.129 552.486 189.261 552.943 188.496C553.41 187.721 554.054 187.119 554.875 186.69C555.696 186.251 556.62 186.032 557.647 186.032C558.506 186.032 559.285 186.177 559.985 186.466C560.685 186.755 561.273 187.175 561.749 187.726L560.293 189.07C559.593 188.333 558.748 187.964 557.759 187.964C557.134 187.964 556.578 188.095 556.093 188.356C555.608 188.617 555.23 188.986 554.959 189.462C554.688 189.938 554.553 190.484 554.553 191.1C554.553 191.707 554.688 192.248 554.959 192.724C555.23 193.2 555.603 193.573 556.079 193.844C556.564 194.105 557.115 194.236 557.731 194.236C558.384 194.236 558.972 194.096 559.495 193.816V190.946Z" fill="url(#paint42_linear_754:91208)"/>
<path d="M633.382 69.168C632.607 69.168 631.856 69.0653 631.128 68.86C630.409 68.6453 629.831 68.37 629.392 68.034L630.162 66.326C630.582 66.634 631.081 66.8813 631.66 67.068C632.239 67.2547 632.817 67.348 633.396 67.348C634.04 67.348 634.516 67.2547 634.824 67.068C635.132 66.872 635.286 66.6153 635.286 66.298C635.286 66.0647 635.193 65.8733 635.006 65.724C634.829 65.5653 634.595 65.4393 634.306 65.346C634.026 65.2527 633.643 65.15 633.158 65.038C632.411 64.8607 631.8 64.6833 631.324 64.506C630.848 64.3287 630.437 64.044 630.092 63.652C629.756 63.26 629.588 62.7373 629.588 62.084C629.588 61.5147 629.742 61.0013 630.05 60.544C630.358 60.0773 630.82 59.7087 631.436 59.438C632.061 59.1673 632.822 59.032 633.718 59.032C634.343 59.032 634.955 59.1067 635.552 59.256C636.149 59.4053 636.672 59.62 637.12 59.9L636.42 61.622C635.515 61.1087 634.609 60.852 633.704 60.852C633.069 60.852 632.598 60.9547 632.29 61.16C631.991 61.3653 631.842 61.636 631.842 61.972C631.842 62.308 632.015 62.56 632.36 62.728C632.715 62.8867 633.251 63.0453 633.97 63.204C634.717 63.3813 635.328 63.5587 635.804 63.736C636.28 63.9133 636.686 64.1933 637.022 64.576C637.367 64.9587 637.54 65.4767 637.54 66.13C637.54 66.69 637.381 67.2033 637.064 67.67C636.756 68.1273 636.289 68.4913 635.664 68.762C635.039 69.0327 634.278 69.168 633.382 69.168ZM646.678 67.18V69H639.09V59.2H646.496V61.02H641.344V63.148H645.894V64.912H641.344V67.18H646.678ZM657.4 69L657.386 63.12L654.502 67.964H653.48L650.61 63.246V69H648.482V59.2H650.358L654.026 65.29L657.638 59.2H659.5L659.528 69H657.4ZM661.853 59.2H664.121V69H661.853V59.2ZM668.715 61.02V63.61H673.251V65.43H668.715V69H666.447V59.2H673.853V61.02H668.715ZM675.389 59.2H677.657V69H675.389V59.2ZM688.97 59.2V69H687.108L682.222 63.05V69H679.982V59.2H681.858L686.73 65.15V59.2H688.97ZM697.743 66.9H693.193L692.325 69H690.001L694.369 59.2H696.609L700.991 69H698.611L697.743 66.9ZM697.029 65.178L695.475 61.426L693.921 65.178H697.029ZM702.008 59.2H704.276V67.152H709.19V69H702.008V59.2Z" fill="url(#paint43_linear_754:91208)"/>
<path d="M762.43 175.02V177.61H766.966V179.43H762.43V183H760.162V173.2H767.568V175.02H762.43ZM769.103 173.2H771.371V183H769.103V173.2ZM782.685 173.2V183H780.823L775.937 177.05V183H773.697V173.2H775.573L780.445 179.15V173.2H782.685ZM791.458 180.9H786.908L786.04 183H783.716L788.084 173.2H790.324L794.706 183H792.326L791.458 180.9ZM790.744 179.178L789.19 175.426L787.636 179.178H790.744ZM795.723 173.2H797.991V181.152H802.905V183H795.723V173.2Z" fill="url(#paint44_linear_754:91208)"/>
<path d="M105.406 50L103.516 47.27H103.404H101.43V50H99.162V40.2H103.404C104.272 40.2 105.023 40.3447 105.658 40.634C106.302 40.9233 106.797 41.334 107.142 41.866C107.487 42.398 107.66 43.028 107.66 43.756C107.66 44.484 107.483 45.114 107.128 45.646C106.783 46.1687 106.288 46.57 105.644 46.85L107.842 50H105.406ZM105.364 43.756C105.364 43.2053 105.187 42.7853 104.832 42.496C104.477 42.1973 103.959 42.048 103.278 42.048H101.43V45.464H103.278C103.959 45.464 104.477 45.3147 104.832 45.016C105.187 44.7173 105.364 44.2973 105.364 43.756ZM117.045 48.18V50H109.457V40.2H116.863V42.02H111.711V44.148H116.261V45.912H111.711V48.18H117.045ZM125.444 44.946H127.516V48.922C126.984 49.3233 126.368 49.6313 125.668 49.846C124.968 50.0607 124.263 50.168 123.554 50.168C122.537 50.168 121.622 49.9533 120.81 49.524C119.998 49.0853 119.359 48.4833 118.892 47.718C118.435 46.9433 118.206 46.0707 118.206 45.1C118.206 44.1293 118.435 43.2613 118.892 42.496C119.359 41.7213 120.003 41.1193 120.824 40.69C121.645 40.2513 122.569 40.032 123.596 40.032C124.455 40.032 125.234 40.1767 125.934 40.466C126.634 40.7553 127.222 41.1753 127.698 41.726L126.242 43.07C125.542 42.3327 124.697 41.964 123.708 41.964C123.083 41.964 122.527 42.0947 122.042 42.356C121.557 42.6173 121.179 42.986 120.908 43.462C120.637 43.938 120.502 44.484 120.502 45.1C120.502 45.7067 120.637 46.248 120.908 46.724C121.179 47.2 121.552 47.5733 122.028 47.844C122.513 48.1053 123.064 48.236 123.68 48.236C124.333 48.236 124.921 48.096 125.444 47.816V44.946ZM129.623 40.2H131.891V50H129.623V40.2ZM137.437 50.168C136.662 50.168 135.911 50.0653 135.183 49.86C134.464 49.6453 133.885 49.37 133.447 49.034L134.217 47.326C134.637 47.634 135.136 47.8813 135.715 48.068C136.293 48.2547 136.872 48.348 137.451 48.348C138.095 48.348 138.571 48.2547 138.879 48.068C139.187 47.872 139.341 47.6153 139.341 47.298C139.341 47.0647 139.247 46.8733 139.061 46.724C138.883 46.5653 138.65 46.4393 138.361 46.346C138.081 46.2527 137.698 46.15 137.213 46.038C136.466 45.8607 135.855 45.6833 135.379 45.506C134.903 45.3287 134.492 45.044 134.147 44.652C133.811 44.26 133.643 43.7373 133.643 43.084C133.643 42.5147 133.797 42.0013 134.105 41.544C134.413 41.0773 134.875 40.7087 135.491 40.438C136.116 40.1673 136.877 40.032 137.773 40.032C138.398 40.032 139.009 40.1067 139.607 40.256C140.204 40.4053 140.727 40.62 141.175 40.9L140.475 42.622C139.569 42.1087 138.664 41.852 137.759 41.852C137.124 41.852 136.653 41.9547 136.345 42.16C136.046 42.3653 135.897 42.636 135.897 42.972C135.897 43.308 136.069 43.56 136.415 43.728C136.769 43.8867 137.306 44.0453 138.025 44.204C138.771 44.3813 139.383 44.5587 139.859 44.736C140.335 44.9133 140.741 45.1933 141.077 45.576C141.422 45.9587 141.595 46.4767 141.595 47.13C141.595 47.69 141.436 48.2033 141.119 48.67C140.811 49.1273 140.344 49.4913 139.719 49.762C139.093 50.0327 138.333 50.168 137.437 50.168ZM145.038 42.048H141.902V40.2H150.442V42.048H147.306V50H145.038V42.048ZM157.906 50L156.016 47.27H155.904H153.93V50H151.662V40.2H155.904C156.772 40.2 157.523 40.3447 158.158 40.634C158.802 40.9233 159.297 41.334 159.642 41.866C159.987 42.398 160.16 43.028 160.16 43.756C160.16 44.484 159.983 45.114 159.628 45.646C159.283 46.1687 158.788 46.57 158.144 46.85L160.342 50H157.906ZM157.864 43.756C157.864 43.2053 157.687 42.7853 157.332 42.496C156.977 42.1973 156.459 42.048 155.778 42.048H153.93V45.464H155.778C156.459 45.464 156.977 45.3147 157.332 45.016C157.687 44.7173 157.864 44.2973 157.864 43.756ZM168.411 47.9H163.861L162.993 50H160.669L165.037 40.2H167.277L171.659 50H169.279L168.411 47.9ZM167.697 46.178L166.143 42.426L164.589 46.178H167.697ZM174.213 42.048H171.077V40.2H179.617V42.048H176.481V50H174.213V42.048ZM180.838 40.2H183.106V50H180.838V40.2ZM190.178 50.168C189.16 50.168 188.241 49.9487 187.42 49.51C186.608 49.0713 185.968 48.4693 185.502 47.704C185.044 46.9293 184.816 46.0613 184.816 45.1C184.816 44.1387 185.044 43.2753 185.502 42.51C185.968 41.7353 186.608 41.1287 187.42 40.69C188.241 40.2513 189.16 40.032 190.178 40.032C191.195 40.032 192.11 40.2513 192.922 40.69C193.734 41.1287 194.373 41.7353 194.84 42.51C195.306 43.2753 195.54 44.1387 195.54 45.1C195.54 46.0613 195.306 46.9293 194.84 47.704C194.373 48.4693 193.734 49.0713 192.922 49.51C192.11 49.9487 191.195 50.168 190.178 50.168ZM190.178 48.236C190.756 48.236 191.279 48.1053 191.746 47.844C192.212 47.5733 192.576 47.2 192.838 46.724C193.108 46.248 193.244 45.7067 193.244 45.1C193.244 44.4933 193.108 43.952 192.838 43.476C192.576 43 192.212 42.6313 191.746 42.37C191.279 42.0993 190.756 41.964 190.178 41.964C189.599 41.964 189.076 42.0993 188.61 42.37C188.143 42.6313 187.774 43 187.504 43.476C187.242 43.952 187.112 44.4933 187.112 45.1C187.112 45.7067 187.242 46.248 187.504 46.724C187.774 47.2 188.143 47.5733 188.61 47.844C189.076 48.1053 189.599 48.236 190.178 48.236ZM206.232 40.2V50H204.37L199.484 44.05V50H197.244V40.2H199.12L203.992 46.15V40.2H206.232ZM106.358 65.904C106.918 66.0813 107.357 66.38 107.674 66.8C107.991 67.2107 108.15 67.7193 108.15 68.326C108.15 69.1847 107.814 69.8473 107.142 70.314C106.479 70.7713 105.509 71 104.23 71H99.162V61.2H103.95C105.145 61.2 106.059 61.4287 106.694 61.886C107.338 62.3433 107.66 62.964 107.66 63.748C107.66 64.224 107.543 64.6487 107.31 65.022C107.086 65.3953 106.769 65.6893 106.358 65.904ZM101.416 62.908V65.218H103.67C104.23 65.218 104.655 65.12 104.944 64.924C105.233 64.728 105.378 64.4387 105.378 64.056C105.378 63.6733 105.233 63.3887 104.944 63.202C104.655 63.006 104.23 62.908 103.67 62.908H101.416ZM104.062 69.292C104.659 69.292 105.107 69.194 105.406 68.998C105.714 68.802 105.868 68.4987 105.868 68.088C105.868 67.276 105.266 66.87 104.062 66.87H101.416V69.292H104.062ZM116.321 68.9H111.771L110.903 71H108.579L112.947 61.2H115.187L119.569 71H117.189L116.321 68.9ZM115.607 67.178L114.053 63.426L112.499 67.178H115.607ZM122.124 63.048H118.988V61.2H127.528V63.048H124.392V71H122.124V63.048ZM133.301 71.168C132.303 71.168 131.397 70.9533 130.585 70.524C129.783 70.0853 129.148 69.4833 128.681 68.718C128.224 67.9433 127.995 67.0707 127.995 66.1C127.995 65.1293 128.224 64.2613 128.681 63.496C129.148 62.7213 129.783 62.1193 130.585 61.69C131.397 61.2513 132.307 61.032 133.315 61.032C134.165 61.032 134.93 61.1813 135.611 61.48C136.302 61.7787 136.881 62.208 137.347 62.768L135.891 64.112C135.229 63.3467 134.407 62.964 133.427 62.964C132.821 62.964 132.279 63.0993 131.803 63.37C131.327 63.6313 130.954 64 130.683 64.476C130.422 64.952 130.291 65.4933 130.291 66.1C130.291 66.7067 130.422 67.248 130.683 67.724C130.954 68.2 131.327 68.5733 131.803 68.844C132.279 69.1053 132.821 69.236 133.427 69.236C134.407 69.236 135.229 68.8487 135.891 68.074L137.347 69.418C136.881 69.9873 136.302 70.4213 135.611 70.72C134.921 71.0187 134.151 71.168 133.301 71.168ZM147.867 61.2V71H145.599V66.982H141.147V71H138.879V61.2H141.147V65.064H145.599V61.2H147.867ZM157.314 61.2V71H155.046V63.02H153.086V61.2H157.314Z" fill="url(#paint45_linear_754:91208)"/>
<path d="M227.406 175L225.516 172.27H225.404H223.43V175H221.162V165.2H225.404C226.272 165.2 227.023 165.345 227.658 165.634C228.302 165.923 228.797 166.334 229.142 166.866C229.487 167.398 229.66 168.028 229.66 168.756C229.66 169.484 229.483 170.114 229.128 170.646C228.783 171.169 228.288 171.57 227.644 171.85L229.842 175H227.406ZM227.364 168.756C227.364 168.205 227.187 167.785 226.832 167.496C226.477 167.197 225.959 167.048 225.278 167.048H223.43V170.464H225.278C225.959 170.464 226.477 170.315 226.832 170.016C227.187 169.717 227.364 169.297 227.364 168.756ZM239.045 173.18V175H231.457V165.2H238.863V167.02H233.711V169.148H238.261V170.912H233.711V173.18H239.045ZM247.444 169.946H249.516V173.922C248.984 174.323 248.368 174.631 247.668 174.846C246.968 175.061 246.263 175.168 245.554 175.168C244.537 175.168 243.622 174.953 242.81 174.524C241.998 174.085 241.359 173.483 240.892 172.718C240.435 171.943 240.206 171.071 240.206 170.1C240.206 169.129 240.435 168.261 240.892 167.496C241.359 166.721 242.003 166.119 242.824 165.69C243.645 165.251 244.569 165.032 245.596 165.032C246.455 165.032 247.234 165.177 247.934 165.466C248.634 165.755 249.222 166.175 249.698 166.726L248.242 168.07C247.542 167.333 246.697 166.964 245.708 166.964C245.083 166.964 244.527 167.095 244.042 167.356C243.557 167.617 243.179 167.986 242.908 168.462C242.637 168.938 242.502 169.484 242.502 170.1C242.502 170.707 242.637 171.248 242.908 171.724C243.179 172.2 243.552 172.573 244.028 172.844C244.513 173.105 245.064 173.236 245.68 173.236C246.333 173.236 246.921 173.096 247.444 172.816V169.946ZM251.623 165.2H253.891V175H251.623V165.2ZM259.437 175.168C258.662 175.168 257.911 175.065 257.183 174.86C256.464 174.645 255.885 174.37 255.447 174.034L256.217 172.326C256.637 172.634 257.136 172.881 257.715 173.068C258.293 173.255 258.872 173.348 259.451 173.348C260.095 173.348 260.571 173.255 260.879 173.068C261.187 172.872 261.341 172.615 261.341 172.298C261.341 172.065 261.247 171.873 261.061 171.724C260.883 171.565 260.65 171.439 260.361 171.346C260.081 171.253 259.698 171.15 259.213 171.038C258.466 170.861 257.855 170.683 257.379 170.506C256.903 170.329 256.492 170.044 256.147 169.652C255.811 169.26 255.643 168.737 255.643 168.084C255.643 167.515 255.797 167.001 256.105 166.544C256.413 166.077 256.875 165.709 257.491 165.438C258.116 165.167 258.877 165.032 259.773 165.032C260.398 165.032 261.009 165.107 261.607 165.256C262.204 165.405 262.727 165.62 263.175 165.9L262.475 167.622C261.569 167.109 260.664 166.852 259.759 166.852C259.124 166.852 258.653 166.955 258.345 167.16C258.046 167.365 257.897 167.636 257.897 167.972C257.897 168.308 258.069 168.56 258.415 168.728C258.769 168.887 259.306 169.045 260.025 169.204C260.771 169.381 261.383 169.559 261.859 169.736C262.335 169.913 262.741 170.193 263.077 170.576C263.422 170.959 263.595 171.477 263.595 172.13C263.595 172.69 263.436 173.203 263.119 173.67C262.811 174.127 262.344 174.491 261.719 174.762C261.093 175.033 260.333 175.168 259.437 175.168ZM267.038 167.048H263.902V165.2H272.442V167.048H269.306V175H267.038V167.048ZM279.906 175L278.016 172.27H277.904H275.93V175H273.662V165.2H277.904C278.772 165.2 279.523 165.345 280.158 165.634C280.802 165.923 281.297 166.334 281.642 166.866C281.987 167.398 282.16 168.028 282.16 168.756C282.16 169.484 281.983 170.114 281.628 170.646C281.283 171.169 280.788 171.57 280.144 171.85L282.342 175H279.906ZM279.864 168.756C279.864 168.205 279.687 167.785 279.332 167.496C278.977 167.197 278.459 167.048 277.778 167.048H275.93V170.464H277.778C278.459 170.464 278.977 170.315 279.332 170.016C279.687 169.717 279.864 169.297 279.864 168.756ZM290.411 172.9H285.861L284.993 175H282.669L287.037 165.2H289.277L293.659 175H291.279L290.411 172.9ZM289.697 171.178L288.143 167.426L286.589 171.178H289.697ZM296.213 167.048H293.077V165.2H301.617V167.048H298.481V175H296.213V167.048ZM302.838 165.2H305.106V175H302.838V165.2ZM312.178 175.168C311.16 175.168 310.241 174.949 309.42 174.51C308.608 174.071 307.968 173.469 307.502 172.704C307.044 171.929 306.816 171.061 306.816 170.1C306.816 169.139 307.044 168.275 307.502 167.51C307.968 166.735 308.608 166.129 309.42 165.69C310.241 165.251 311.16 165.032 312.178 165.032C313.195 165.032 314.11 165.251 314.922 165.69C315.734 166.129 316.373 166.735 316.84 167.51C317.306 168.275 317.54 169.139 317.54 170.1C317.54 171.061 317.306 171.929 316.84 172.704C316.373 173.469 315.734 174.071 314.922 174.51C314.11 174.949 313.195 175.168 312.178 175.168ZM312.178 173.236C312.756 173.236 313.279 173.105 313.746 172.844C314.212 172.573 314.576 172.2 314.838 171.724C315.108 171.248 315.244 170.707 315.244 170.1C315.244 169.493 315.108 168.952 314.838 168.476C314.576 168 314.212 167.631 313.746 167.37C313.279 167.099 312.756 166.964 312.178 166.964C311.599 166.964 311.076 167.099 310.61 167.37C310.143 167.631 309.774 168 309.504 168.476C309.242 168.952 309.112 169.493 309.112 170.1C309.112 170.707 309.242 171.248 309.504 171.724C309.774 172.2 310.143 172.573 310.61 172.844C311.076 173.105 311.599 173.236 312.178 173.236ZM328.232 165.2V175H326.37L321.484 169.05V175H319.244V165.2H321.12L325.992 171.15V165.2H328.232ZM228.358 190.904C228.918 191.081 229.357 191.38 229.674 191.8C229.991 192.211 230.15 192.719 230.15 193.326C230.15 194.185 229.814 194.847 229.142 195.314C228.479 195.771 227.509 196 226.23 196H221.162V186.2H225.95C227.145 186.2 228.059 186.429 228.694 186.886C229.338 187.343 229.66 187.964 229.66 188.748C229.66 189.224 229.543 189.649 229.31 190.022C229.086 190.395 228.769 190.689 228.358 190.904ZM223.416 187.908V190.218H225.67C226.23 190.218 226.655 190.12 226.944 189.924C227.233 189.728 227.378 189.439 227.378 189.056C227.378 188.673 227.233 188.389 226.944 188.202C226.655 188.006 226.23 187.908 225.67 187.908H223.416ZM226.062 194.292C226.659 194.292 227.107 194.194 227.406 193.998C227.714 193.802 227.868 193.499 227.868 193.088C227.868 192.276 227.266 191.87 226.062 191.87H223.416V194.292H226.062ZM238.321 193.9H233.771L232.903 196H230.579L234.947 186.2H237.187L241.569 196H239.189L238.321 193.9ZM237.607 192.178L236.053 188.426L234.499 192.178H237.607ZM244.124 188.048H240.988V186.2H249.528V188.048H246.392V196H244.124V188.048ZM255.301 196.168C254.303 196.168 253.397 195.953 252.585 195.524C251.783 195.085 251.148 194.483 250.681 193.718C250.224 192.943 249.995 192.071 249.995 191.1C249.995 190.129 250.224 189.261 250.681 188.496C251.148 187.721 251.783 187.119 252.585 186.69C253.397 186.251 254.307 186.032 255.315 186.032C256.165 186.032 256.93 186.181 257.611 186.48C258.302 186.779 258.881 187.208 259.347 187.768L257.891 189.112C257.229 188.347 256.407 187.964 255.427 187.964C254.821 187.964 254.279 188.099 253.803 188.37C253.327 188.631 252.954 189 252.683 189.476C252.422 189.952 252.291 190.493 252.291 191.1C252.291 191.707 252.422 192.248 252.683 192.724C252.954 193.2 253.327 193.573 253.803 193.844C254.279 194.105 254.821 194.236 255.427 194.236C256.407 194.236 257.229 193.849 257.891 193.074L259.347 194.418C258.881 194.987 258.302 195.421 257.611 195.72C256.921 196.019 256.151 196.168 255.301 196.168ZM269.867 186.2V196H267.599V191.982H263.147V196H260.879V186.2H263.147V190.064H267.599V186.2H269.867ZM282.856 194.152V196H275.45V194.53L279.23 190.96C279.632 190.577 279.902 190.251 280.042 189.98C280.182 189.7 280.252 189.425 280.252 189.154C280.252 188.762 280.117 188.463 279.846 188.258C279.585 188.043 279.198 187.936 278.684 187.936C278.255 187.936 277.868 188.02 277.522 188.188C277.177 188.347 276.888 188.589 276.654 188.916L275.002 187.852C275.385 187.283 275.912 186.839 276.584 186.522C277.256 186.195 278.026 186.032 278.894 186.032C279.622 186.032 280.257 186.153 280.798 186.396C281.349 186.629 281.774 186.965 282.072 187.404C282.38 187.833 282.534 188.342 282.534 188.93C282.534 189.462 282.422 189.961 282.198 190.428C281.974 190.895 281.54 191.427 280.896 192.024L278.642 194.152H282.856Z" fill="url(#paint46_linear_754:91208)"/>
<path d="M375.3 90.36V91H370.39V90.49L373.3 87.64C373.667 87.28 373.913 86.97 374.04 86.71C374.173 86.4433 374.24 86.1767 374.24 85.91C374.24 85.4967 374.097 85.1767 373.81 84.95C373.53 84.7167 373.127 84.6 372.6 84.6C371.78 84.6 371.143 84.86 370.69 85.38L370.18 84.94C370.453 84.62 370.8 84.3733 371.22 84.2C371.647 84.0267 372.127 83.94 372.66 83.94C373.373 83.94 373.937 84.11 374.35 84.45C374.77 84.7833 374.98 85.2433 374.98 85.83C374.98 86.19 374.9 86.5367 374.74 86.87C374.58 87.2033 374.277 87.5867 373.83 88.02L371.45 90.36H375.3ZM378.955 91.06C378.415 91.06 377.931 90.9167 377.505 90.63C377.085 90.3433 376.755 89.9333 376.515 89.4C376.281 88.86 376.165 88.2267 376.165 87.5C376.165 86.7733 376.281 86.1433 376.515 85.61C376.755 85.07 377.085 84.6567 377.505 84.37C377.931 84.0833 378.415 83.94 378.955 83.94C379.495 83.94 379.975 84.0833 380.395 84.37C380.821 84.6567 381.155 85.07 381.395 85.61C381.635 86.1433 381.755 86.7733 381.755 87.5C381.755 88.2267 381.635 88.86 381.395 89.4C381.155 89.9333 380.821 90.3433 380.395 90.63C379.975 90.9167 379.495 91.06 378.955 91.06ZM378.955 90.4C379.361 90.4 379.718 90.2867 380.025 90.06C380.338 89.8333 380.581 89.5033 380.755 89.07C380.928 88.6367 381.015 88.1133 381.015 87.5C381.015 86.8867 380.928 86.3633 380.755 85.93C380.581 85.4967 380.338 85.1667 380.025 84.94C379.718 84.7133 379.361 84.6 378.955 84.6C378.548 84.6 378.188 84.7133 377.875 84.94C377.568 85.1667 377.328 85.4967 377.155 85.93C376.981 86.3633 376.895 86.8867 376.895 87.5C376.895 88.1133 376.981 88.6367 377.155 89.07C377.328 89.5033 377.568 89.8333 377.875 90.06C378.188 90.2867 378.548 90.4 378.955 90.4ZM386.773 91.06C386.373 91.06 386.003 90.9733 385.663 90.8C385.323 90.6267 385.046 90.38 384.833 90.06L385.273 89.56C385.659 90.1333 386.163 90.42 386.783 90.42C387.649 90.42 388.083 89.9067 388.083 88.88V84.64H385.523V84H388.813V88.85C388.813 89.5833 388.639 90.1367 388.293 90.51C387.953 90.8767 387.446 91.06 386.773 91.06ZM395.276 89.13H391.376L390.536 91H389.766L392.966 84H393.696L396.896 91H396.116L395.276 89.13ZM395.006 88.53L393.326 84.77L391.646 88.53H395.006ZM403.904 84V91H403.294L398.794 85.32V91H398.054V84H398.664L403.174 89.68V84H403.904ZM408.266 87.98H410.886V88.6H408.266V87.98ZM419.402 90.36V91H414.492V90.49L417.402 87.64C417.768 87.28 418.015 86.97 418.142 86.71C418.275 86.4433 418.342 86.1767 418.342 85.91C418.342 85.4967 418.198 85.1767 417.912 84.95C417.632 84.7167 417.228 84.6 416.702 84.6C415.882 84.6 415.245 84.86 414.792 85.38L414.282 84.94C414.555 84.62 414.902 84.3733 415.322 84.2C415.748 84.0267 416.228 83.94 416.762 83.94C417.475 83.94 418.038 84.11 418.452 84.45C418.872 84.7833 419.082 85.2433 419.082 85.83C419.082 86.19 419.002 86.5367 418.842 86.87C418.682 87.2033 418.378 87.5867 417.932 88.02L415.552 90.36H419.402ZM422.245 84V91H421.525V84.64H419.875V84H422.245ZM427.906 91.06C427.506 91.06 427.136 90.9733 426.796 90.8C426.456 90.6267 426.179 90.38 425.966 90.06L426.406 89.56C426.792 90.1333 427.296 90.42 427.916 90.42C428.782 90.42 429.216 89.9067 429.216 88.88V84.64H426.656V84H429.946V88.85C429.946 89.5833 429.772 90.1367 429.426 90.51C429.086 90.8767 428.579 91.06 427.906 91.06ZM436.409 89.13H432.509L431.669 91H430.899L434.099 84H434.829L438.029 91H437.249L436.409 89.13ZM436.139 88.53L434.459 84.77L432.779 88.53H436.139ZM445.037 84V91H444.427L439.927 85.32V91H439.187V84H439.797L444.307 89.68V84H445.037ZM454.099 90.36V91H449.189V90.49L452.099 87.64C452.465 87.28 452.712 86.97 452.839 86.71C452.972 86.4433 453.039 86.1767 453.039 85.91C453.039 85.4967 452.895 85.1767 452.609 84.95C452.329 84.7167 451.925 84.6 451.399 84.6C450.579 84.6 449.942 84.86 449.489 85.38L448.979 84.94C449.252 84.62 449.599 84.3733 450.019 84.2C450.445 84.0267 450.925 83.94 451.459 83.94C452.172 83.94 452.735 84.11 453.149 84.45C453.569 84.7833 453.779 85.2433 453.779 85.83C453.779 86.19 453.699 86.5367 453.539 86.87C453.379 87.2033 453.075 87.5867 452.629 88.02L450.249 90.36H454.099ZM457.753 91.06C457.213 91.06 456.73 90.9167 456.303 90.63C455.883 90.3433 455.553 89.9333 455.313 89.4C455.08 88.86 454.963 88.2267 454.963 87.5C454.963 86.7733 455.08 86.1433 455.313 85.61C455.553 85.07 455.883 84.6567 456.303 84.37C456.73 84.0833 457.213 83.94 457.753 83.94C458.293 83.94 458.773 84.0833 459.193 84.37C459.62 84.6567 459.953 85.07 460.193 85.61C460.433 86.1433 460.553 86.7733 460.553 87.5C460.553 88.2267 460.433 88.86 460.193 89.4C459.953 89.9333 459.62 90.3433 459.193 90.63C458.773 90.9167 458.293 91.06 457.753 91.06ZM457.753 90.4C458.16 90.4 458.517 90.2867 458.823 90.06C459.137 89.8333 459.38 89.5033 459.553 89.07C459.727 88.6367 459.813 88.1133 459.813 87.5C459.813 86.8867 459.727 86.3633 459.553 85.93C459.38 85.4967 459.137 85.1667 458.823 84.94C458.517 84.7133 458.16 84.6 457.753 84.6C457.347 84.6 456.987 84.7133 456.673 84.94C456.367 85.1667 456.127 85.4967 455.953 85.93C455.78 86.3633 455.693 86.8867 455.693 87.5C455.693 88.1133 455.78 88.6367 455.953 89.07C456.127 89.5033 456.367 89.8333 456.673 90.06C456.987 90.2867 457.347 90.4 457.753 90.4ZM466.345 90.36V91H461.435V90.49L464.345 87.64C464.712 87.28 464.958 86.97 465.085 86.71C465.218 86.4433 465.285 86.1767 465.285 85.91C465.285 85.4967 465.142 85.1767 464.855 84.95C464.575 84.7167 464.172 84.6 463.645 84.6C462.825 84.6 462.188 84.86 461.735 85.38L461.225 84.94C461.498 84.62 461.845 84.3733 462.265 84.2C462.692 84.0267 463.172 83.94 463.705 83.94C464.418 83.94 464.982 84.11 465.395 84.45C465.815 84.7833 466.025 85.2433 466.025 85.83C466.025 86.19 465.945 86.5367 465.785 86.87C465.625 87.2033 465.322 87.5867 464.875 88.02L462.495 90.36H466.345ZM472.029 90.36V91H467.119V90.49L470.029 87.64C470.395 87.28 470.642 86.97 470.769 86.71C470.902 86.4433 470.969 86.1767 470.969 85.91C470.969 85.4967 470.825 85.1767 470.539 84.95C470.259 84.7167 469.855 84.6 469.329 84.6C468.509 84.6 467.872 84.86 467.419 85.38L466.909 84.94C467.182 84.62 467.529 84.3733 467.949 84.2C468.375 84.0267 468.855 83.94 469.389 83.94C470.102 83.94 470.665 84.11 471.079 84.45C471.499 84.7833 471.709 85.2433 471.709 85.83C471.709 86.19 471.629 86.5367 471.469 86.87C471.309 87.2033 471.005 87.5867 470.559 88.02L468.179 90.36H472.029Z" fill="#AAA2FF"/>
<path d="M100.46 84V91H99.74V84.64H98.09V84H100.46ZM111.22 84V91H110.61L106.11 85.32V91H105.37V84H105.98L110.49 89.68V84H111.22ZM116.565 91.06C115.872 91.06 115.242 90.9067 114.675 90.6C114.115 90.2867 113.675 89.86 113.355 89.32C113.042 88.78 112.885 88.1733 112.885 87.5C112.885 86.8267 113.042 86.22 113.355 85.68C113.675 85.14 114.115 84.7167 114.675 84.41C115.242 84.0967 115.872 83.94 116.565 83.94C117.259 83.94 117.882 84.0933 118.435 84.4C118.995 84.7067 119.435 85.1333 119.755 85.68C120.075 86.22 120.235 86.8267 120.235 87.5C120.235 88.1733 120.075 88.7833 119.755 89.33C119.435 89.87 118.995 90.2933 118.435 90.6C117.882 90.9067 117.259 91.06 116.565 91.06ZM116.565 90.4C117.119 90.4 117.619 90.2767 118.065 90.03C118.512 89.7767 118.862 89.43 119.115 88.99C119.369 88.5433 119.495 88.0467 119.495 87.5C119.495 86.9533 119.369 86.46 119.115 86.02C118.862 85.5733 118.512 85.2267 118.065 84.98C117.619 84.7267 117.119 84.6 116.565 84.6C116.012 84.6 115.509 84.7267 115.055 84.98C114.609 85.2267 114.255 85.5733 113.995 86.02C113.742 86.46 113.615 86.9533 113.615 87.5C113.615 88.0467 113.742 88.5433 113.995 88.99C114.255 89.43 114.609 89.7767 115.055 90.03C115.509 90.2767 116.012 90.4 116.565 90.4ZM127.499 84L124.399 91H123.669L120.569 84H121.369L124.049 90.08L126.749 84H127.499ZM130.739 87.98H133.359V88.6H130.739V87.98ZM139.034 84V91H138.314V84.64H136.664V84H139.034ZM145.648 84V84.51L142.718 91H141.938L144.818 84.64H141.218V85.95H140.508V84H145.648ZM149.833 84H152.683C153.423 84 154.077 84.15 154.643 84.45C155.21 84.7433 155.65 85.1567 155.963 85.69C156.277 86.2167 156.433 86.82 156.433 87.5C156.433 88.18 156.277 88.7867 155.963 89.32C155.65 89.8467 155.21 90.26 154.643 90.56C154.077 90.8533 153.423 91 152.683 91H149.833V84ZM152.643 90.36C153.257 90.36 153.793 90.24 154.253 90C154.713 89.7533 155.07 89.4167 155.323 88.99C155.577 88.5567 155.703 88.06 155.703 87.5C155.703 86.94 155.577 86.4467 155.323 86.02C155.07 85.5867 154.713 85.25 154.253 85.01C153.793 84.7633 153.257 84.64 152.643 84.64H150.573V90.36H152.643ZM163.045 90.36V91H158.095V84H162.895V84.64H158.835V87.13H162.455V87.76H158.835V90.36H163.045ZM167.785 91.06C167.092 91.06 166.465 90.9067 165.905 90.6C165.352 90.2933 164.915 89.87 164.595 89.33C164.282 88.7833 164.125 88.1733 164.125 87.5C164.125 86.8267 164.282 86.22 164.595 85.68C164.915 85.1333 165.355 84.7067 165.915 84.4C166.475 84.0933 167.102 83.94 167.795 83.94C168.315 83.94 168.795 84.0267 169.235 84.2C169.675 84.3733 170.049 84.6267 170.355 84.96L169.885 85.43C169.339 84.8767 168.649 84.6 167.815 84.6C167.262 84.6 166.759 84.7267 166.305 84.98C165.852 85.2333 165.495 85.58 165.235 86.02C164.982 86.46 164.855 86.9533 164.855 87.5C164.855 88.0467 164.982 88.54 165.235 88.98C165.495 89.42 165.852 89.7667 166.305 90.02C166.759 90.2733 167.262 90.4 167.815 90.4C168.655 90.4 169.345 90.12 169.885 89.56L170.355 90.03C170.049 90.3633 169.672 90.62 169.225 90.8C168.785 90.9733 168.305 91.06 167.785 91.06ZM178.71 90.36V91H173.8V90.49L176.71 87.64C177.077 87.28 177.323 86.97 177.45 86.71C177.583 86.4433 177.65 86.1767 177.65 85.91C177.65 85.4967 177.507 85.1767 177.22 84.95C176.94 84.7167 176.537 84.6 176.01 84.6C175.19 84.6 174.553 84.86 174.1 85.38L173.59 84.94C173.863 84.62 174.21 84.3733 174.63 84.2C175.057 84.0267 175.537 83.94 176.07 83.94C176.783 83.94 177.347 84.11 177.76 84.45C178.18 84.7833 178.39 85.2433 178.39 85.83C178.39 86.19 178.31 86.5367 178.15 86.87C177.99 87.2033 177.687 87.5867 177.24 88.02L174.86 90.36H178.71ZM182.365 91.06C181.825 91.06 181.341 90.9167 180.915 90.63C180.495 90.3433 180.165 89.9333 179.925 89.4C179.691 88.86 179.575 88.2267 179.575 87.5C179.575 86.7733 179.691 86.1433 179.925 85.61C180.165 85.07 180.495 84.6567 180.915 84.37C181.341 84.0833 181.825 83.94 182.365 83.94C182.905 83.94 183.385 84.0833 183.805 84.37C184.231 84.6567 184.565 85.07 184.805 85.61C185.045 86.1433 185.165 86.7733 185.165 87.5C185.165 88.2267 185.045 88.86 184.805 89.4C184.565 89.9333 184.231 90.3433 183.805 90.63C183.385 90.9167 182.905 91.06 182.365 91.06ZM182.365 90.4C182.771 90.4 183.128 90.2867 183.435 90.06C183.748 89.8333 183.991 89.5033 184.165 89.07C184.338 88.6367 184.425 88.1133 184.425 87.5C184.425 86.8867 184.338 86.3633 184.165 85.93C183.991 85.4967 183.748 85.1667 183.435 84.94C183.128 84.7133 182.771 84.6 182.365 84.6C181.958 84.6 181.598 84.7133 181.285 84.94C180.978 85.1667 180.738 85.4967 180.565 85.93C180.391 86.3633 180.305 86.8867 180.305 87.5C180.305 88.1133 180.391 88.6367 180.565 89.07C180.738 89.5033 180.978 89.8333 181.285 90.06C181.598 90.2867 181.958 90.4 182.365 90.4ZM190.956 90.36V91H186.046V90.49L188.956 87.64C189.323 87.28 189.57 86.97 189.696 86.71C189.83 86.4433 189.896 86.1767 189.896 85.91C189.896 85.4967 189.753 85.1767 189.466 84.95C189.186 84.7167 188.783 84.6 188.256 84.6C187.436 84.6 186.8 84.86 186.346 85.38L185.836 84.94C186.11 84.62 186.456 84.3733 186.876 84.2C187.303 84.0267 187.783 83.94 188.316 83.94C189.03 83.94 189.593 84.11 190.006 84.45C190.426 84.7833 190.636 85.2433 190.636 85.83C190.636 86.19 190.556 86.5367 190.396 86.87C190.236 87.2033 189.933 87.5867 189.486 88.02L187.106 90.36H190.956ZM193.8 84V91H193.08V84.64H191.43V84H193.8Z" fill="#AAA2FF"/>
<path d="M225.3 215.36V216H220.39V215.49L223.3 212.64C223.667 212.28 223.913 211.97 224.04 211.71C224.173 211.443 224.24 211.177 224.24 210.91C224.24 210.497 224.097 210.177 223.81 209.95C223.53 209.717 223.127 209.6 222.6 209.6C221.78 209.6 221.143 209.86 220.69 210.38L220.18 209.94C220.453 209.62 220.8 209.373 221.22 209.2C221.647 209.027 222.127 208.94 222.66 208.94C223.373 208.94 223.937 209.11 224.35 209.45C224.77 209.783 224.98 210.243 224.98 210.83C224.98 211.19 224.9 211.537 224.74 211.87C224.58 212.203 224.277 212.587 223.83 213.02L221.45 215.36H225.3ZM228.955 216.06C228.415 216.06 227.931 215.917 227.505 215.63C227.085 215.343 226.755 214.933 226.515 214.4C226.281 213.86 226.165 213.227 226.165 212.5C226.165 211.773 226.281 211.143 226.515 210.61C226.755 210.07 227.085 209.657 227.505 209.37C227.931 209.083 228.415 208.94 228.955 208.94C229.495 208.94 229.975 209.083 230.395 209.37C230.821 209.657 231.155 210.07 231.395 210.61C231.635 211.143 231.755 211.773 231.755 212.5C231.755 213.227 231.635 213.86 231.395 214.4C231.155 214.933 230.821 215.343 230.395 215.63C229.975 215.917 229.495 216.06 228.955 216.06ZM228.955 215.4C229.361 215.4 229.718 215.287 230.025 215.06C230.338 214.833 230.581 214.503 230.755 214.07C230.928 213.637 231.015 213.113 231.015 212.5C231.015 211.887 230.928 211.363 230.755 210.93C230.581 210.497 230.338 210.167 230.025 209.94C229.718 209.713 229.361 209.6 228.955 209.6C228.548 209.6 228.188 209.713 227.875 209.94C227.568 210.167 227.328 210.497 227.155 210.93C226.981 211.363 226.895 211.887 226.895 212.5C226.895 213.113 226.981 213.637 227.155 214.07C227.328 214.503 227.568 214.833 227.875 215.06C228.188 215.287 228.548 215.4 228.955 215.4ZM236.023 209H238.873C239.613 209 240.266 209.15 240.833 209.45C241.399 209.743 241.839 210.157 242.153 210.69C242.466 211.217 242.623 211.82 242.623 212.5C242.623 213.18 242.466 213.787 242.153 214.32C241.839 214.847 241.399 215.26 240.833 215.56C240.266 215.853 239.613 216 238.873 216H236.023V209ZM238.833 215.36C239.446 215.36 239.983 215.24 240.443 215C240.903 214.753 241.259 214.417 241.513 213.99C241.766 213.557 241.893 213.06 241.893 212.5C241.893 211.94 241.766 211.447 241.513 211.02C241.259 210.587 240.903 210.25 240.443 210.01C239.983 209.763 239.446 209.64 238.833 209.64H236.763V215.36H238.833ZM249.235 215.36V216H244.285V209H249.085V209.64H245.025V212.13H248.645V212.76H245.025V215.36H249.235ZM253.975 216.06C253.282 216.06 252.655 215.907 252.095 215.6C251.542 215.293 251.105 214.87 250.785 214.33C250.472 213.783 250.315 213.173 250.315 212.5C250.315 211.827 250.472 211.22 250.785 210.68C251.105 210.133 251.545 209.707 252.105 209.4C252.665 209.093 253.292 208.94 253.985 208.94C254.505 208.94 254.985 209.027 255.425 209.2C255.865 209.373 256.238 209.627 256.545 209.96L256.075 210.43C255.528 209.877 254.838 209.6 254.005 209.6C253.452 209.6 252.948 209.727 252.495 209.98C252.042 210.233 251.685 210.58 251.425 211.02C251.172 211.46 251.045 211.953 251.045 212.5C251.045 213.047 251.172 213.54 251.425 213.98C251.685 214.42 252.042 214.767 252.495 215.02C252.948 215.273 253.452 215.4 254.005 215.4C254.845 215.4 255.535 215.12 256.075 214.56L256.545 215.03C256.238 215.363 255.862 215.62 255.415 215.8C254.975 215.973 254.495 216.06 253.975 216.06ZM264.9 215.36V216H259.99V215.49L262.9 212.64C263.266 212.28 263.513 211.97 263.64 211.71C263.773 211.443 263.84 211.177 263.84 210.91C263.84 210.497 263.696 210.177 263.41 209.95C263.13 209.717 262.726 209.6 262.2 209.6C261.38 209.6 260.743 209.86 260.29 210.38L259.78 209.94C260.053 209.62 260.4 209.373 260.82 209.2C261.246 209.027 261.726 208.94 262.26 208.94C262.973 208.94 263.536 209.11 263.95 209.45C264.37 209.783 264.58 210.243 264.58 210.83C264.58 211.19 264.5 211.537 264.34 211.87C264.18 212.203 263.876 212.587 263.43 213.02L261.05 215.36H264.9ZM268.554 216.06C268.014 216.06 267.531 215.917 267.104 215.63C266.684 215.343 266.354 214.933 266.114 214.4C265.881 213.86 265.764 213.227 265.764 212.5C265.764 211.773 265.881 211.143 266.114 210.61C266.354 210.07 266.684 209.657 267.104 209.37C267.531 209.083 268.014 208.94 268.554 208.94C269.094 208.94 269.574 209.083 269.994 209.37C270.421 209.657 270.754 210.07 270.994 210.61C271.234 211.143 271.354 211.773 271.354 212.5C271.354 213.227 271.234 213.86 270.994 214.4C270.754 214.933 270.421 215.343 269.994 215.63C269.574 215.917 269.094 216.06 268.554 216.06ZM268.554 215.4C268.961 215.4 269.317 215.287 269.624 215.06C269.937 214.833 270.181 214.503 270.354 214.07C270.527 213.637 270.614 213.113 270.614 212.5C270.614 211.887 270.527 211.363 270.354 210.93C270.181 210.497 269.937 210.167 269.624 209.94C269.317 209.713 268.961 209.6 268.554 209.6C268.147 209.6 267.787 209.713 267.474 209.94C267.167 210.167 266.927 210.497 266.754 210.93C266.581 211.363 266.494 211.887 266.494 212.5C266.494 213.113 266.581 213.637 266.754 214.07C266.927 214.503 267.167 214.833 267.474 215.06C267.787 215.287 268.147 215.4 268.554 215.4ZM277.146 215.36V216H272.236V215.49L275.146 212.64C275.512 212.28 275.759 211.97 275.886 211.71C276.019 211.443 276.086 211.177 276.086 210.91C276.086 210.497 275.942 210.177 275.656 209.95C275.376 209.717 274.972 209.6 274.446 209.6C273.626 209.6 272.989 209.86 272.536 210.38L272.026 209.94C272.299 209.62 272.646 209.373 273.066 209.2C273.492 209.027 273.972 208.94 274.506 208.94C275.219 208.94 275.782 209.11 276.196 209.45C276.616 209.783 276.826 210.243 276.826 210.83C276.826 211.19 276.746 211.537 276.586 211.87C276.426 212.203 276.122 212.587 275.676 213.02L273.296 215.36H277.146ZM279.989 209V216H279.269V209.64H277.619V209H279.989ZM284.36 212.98H286.98V213.6H284.36V212.98ZM292.655 209V216H291.935V209.64H290.285V209H292.655ZM297.229 211.81C297.689 211.81 298.095 211.897 298.449 212.07C298.809 212.243 299.089 212.49 299.289 212.81C299.489 213.123 299.589 213.49 299.589 213.91C299.589 214.337 299.485 214.713 299.279 215.04C299.072 215.367 298.785 215.62 298.419 215.8C298.059 215.973 297.652 216.06 297.199 216.06C296.272 216.06 295.562 215.757 295.069 215.15C294.575 214.537 294.329 213.673 294.329 212.56C294.329 211.78 294.462 211.12 294.729 210.58C294.995 210.04 295.369 209.633 295.849 209.36C296.329 209.08 296.889 208.94 297.529 208.94C298.222 208.94 298.775 209.067 299.189 209.32L298.899 209.9C298.565 209.68 298.112 209.57 297.539 209.57C296.765 209.57 296.159 209.817 295.719 210.31C295.279 210.797 295.059 211.507 295.059 212.44C295.059 212.607 295.069 212.797 295.089 213.01C295.262 212.63 295.539 212.337 295.919 212.13C296.299 211.917 296.735 211.81 297.229 211.81ZM297.169 215.45C297.675 215.45 298.085 215.313 298.399 215.04C298.719 214.76 298.879 214.39 298.879 213.93C298.879 213.47 298.719 213.103 298.399 212.83C298.085 212.557 297.659 212.42 297.119 212.42C296.765 212.42 296.452 212.487 296.179 212.62C295.912 212.753 295.702 212.937 295.549 213.17C295.395 213.403 295.319 213.663 295.319 213.95C295.319 214.217 295.389 214.463 295.529 214.69C295.675 214.917 295.889 215.1 296.169 215.24C296.449 215.38 296.782 215.45 297.169 215.45ZM304.41 216.06C304.01 216.06 303.64 215.973 303.3 215.8C302.96 215.627 302.683 215.38 302.47 215.06L302.91 214.56C303.296 215.133 303.8 215.42 304.42 215.42C305.286 215.42 305.72 214.907 305.72 213.88V209.64H303.16V209H306.45V213.85C306.45 214.583 306.276 215.137 305.93 215.51C305.59 215.877 305.083 216.06 304.41 216.06ZM312.913 214.13H309.013L308.173 216H307.403L310.603 209H311.333L314.533 216H313.753L312.913 214.13ZM312.643 213.53L310.963 209.77L309.283 213.53H312.643ZM321.541 209V216H320.931L316.431 210.32V216H315.691V209H316.301L320.811 214.68V209H321.541ZM330.603 215.36V216H325.693V215.49L328.603 212.64C328.969 212.28 329.216 211.97 329.343 211.71C329.476 211.443 329.543 211.177 329.543 210.91C329.543 210.497 329.399 210.177 329.113 209.95C328.833 209.717 328.429 209.6 327.903 209.6C327.083 209.6 326.446 209.86 325.993 210.38L325.483 209.94C325.756 209.62 326.103 209.373 326.523 209.2C326.949 209.027 327.429 208.94 327.963 208.94C328.676 208.94 329.239 209.11 329.653 209.45C330.073 209.783 330.283 210.243 330.283 210.83C330.283 211.19 330.203 211.537 330.043 211.87C329.883 212.203 329.579 212.587 329.133 213.02L326.753 215.36H330.603ZM334.257 216.06C333.717 216.06 333.234 215.917 332.807 215.63C332.387 215.343 332.057 214.933 331.817 214.4C331.584 213.86 331.467 213.227 331.467 212.5C331.467 211.773 331.584 211.143 331.817 210.61C332.057 210.07 332.387 209.657 332.807 209.37C333.234 209.083 333.717 208.94 334.257 208.94C334.797 208.94 335.277 209.083 335.697 209.37C336.124 209.657 336.457 210.07 336.697 210.61C336.937 211.143 337.057 211.773 337.057 212.5C337.057 213.227 336.937 213.86 336.697 214.4C336.457 214.933 336.124 215.343 335.697 215.63C335.277 215.917 334.797 216.06 334.257 216.06ZM334.257 215.4C334.664 215.4 335.021 215.287 335.327 215.06C335.641 214.833 335.884 214.503 336.057 214.07C336.231 213.637 336.317 213.113 336.317 212.5C336.317 211.887 336.231 211.363 336.057 210.93C335.884 210.497 335.641 210.167 335.327 209.94C335.021 209.713 334.664 209.6 334.257 209.6C333.851 209.6 333.491 209.713 333.177 209.94C332.871 210.167 332.631 210.497 332.457 210.93C332.284 211.363 332.197 211.887 332.197 212.5C332.197 213.113 332.284 213.637 332.457 214.07C332.631 214.503 332.871 214.833 333.177 215.06C333.491 215.287 333.851 215.4 334.257 215.4ZM342.849 215.36V216H337.939V215.49L340.849 212.64C341.215 212.28 341.462 211.97 341.589 211.71C341.722 211.443 341.789 211.177 341.789 210.91C341.789 210.497 341.645 210.177 341.359 209.95C341.079 209.717 340.675 209.6 340.149 209.6C339.329 209.6 338.692 209.86 338.239 210.38L337.729 209.94C338.002 209.62 338.349 209.373 338.769 209.2C339.195 209.027 339.675 208.94 340.209 208.94C340.922 208.94 341.485 209.11 341.899 209.45C342.319 209.783 342.529 210.243 342.529 210.83C342.529 211.19 342.449 211.537 342.289 211.87C342.129 212.203 341.825 212.587 341.379 213.02L338.999 215.36H342.849ZM348.532 215.36V216H343.622V215.49L346.532 212.64C346.899 212.28 347.146 211.97 347.272 211.71C347.406 211.443 347.472 211.177 347.472 210.91C347.472 210.497 347.329 210.177 347.042 209.95C346.762 209.717 346.359 209.6 345.832 209.6C345.012 209.6 344.376 209.86 343.922 210.38L343.412 209.94C343.686 209.62 344.032 209.373 344.452 209.2C344.879 209.027 345.359 208.94 345.892 208.94C346.606 208.94 347.169 209.11 347.582 209.45C348.002 209.783 348.212 210.243 348.212 210.83C348.212 211.19 348.132 211.537 347.972 211.87C347.812 212.203 347.509 212.587 347.062 213.02L344.682 215.36H348.532Z" fill="#AAA2FF"/>
<path d="M99.254 124.036C99.04 124.036 98.846 123.99 98.672 123.898C98.5 123.804 98.364 123.675 98.264 123.511C98.166 123.345 98.117 123.158 98.117 122.95C98.117 122.742 98.166 122.556 98.264 122.392C98.364 122.226 98.5 122.097 98.672 122.005C98.846 121.911 99.041 121.864 99.257 121.864C99.439 121.864 99.603 121.896 99.749 121.96C99.897 122.024 100.021 122.116 100.121 122.236L99.809 122.524C99.667 122.36 99.491 122.278 99.281 122.278C99.151 122.278 99.035 122.307 98.933 122.365C98.831 122.421 98.751 122.5 98.693 122.602C98.637 122.704 98.609 122.82 98.609 122.95C98.609 123.08 98.637 123.196 98.693 123.298C98.751 123.4 98.831 123.48 98.933 123.538C99.035 123.594 99.151 123.622 99.281 123.622C99.491 123.622 99.667 123.539 99.809 123.373L100.121 123.661C100.021 123.783 99.897 123.876 99.749 123.94C99.601 124.004 99.436 124.036 99.254 124.036ZM101.965 124.036C101.665 124.036 101.431 123.953 101.263 123.787C101.097 123.621 101.014 123.384 101.014 123.076V121.9H101.5V123.058C101.5 123.434 101.656 123.622 101.968 123.622C102.12 123.622 102.236 123.577 102.316 123.487C102.396 123.395 102.436 123.252 102.436 123.058V121.9H102.916V123.076C102.916 123.384 102.832 123.621 102.664 123.787C102.498 123.953 102.265 124.036 101.965 124.036ZM105.334 124L104.929 123.415H104.905H104.482V124H103.996V121.9H104.905C105.091 121.9 105.252 121.931 105.388 121.993C105.526 122.055 105.632 122.143 105.706 122.257C105.78 122.371 105.817 122.506 105.817 122.662C105.817 122.818 105.779 122.953 105.703 123.067C105.629 123.179 105.523 123.265 105.385 123.325L105.856 124H105.334ZM105.325 122.662C105.325 122.544 105.287 122.454 105.211 122.392C105.135 122.328 105.024 122.296 104.878 122.296H104.482V123.028H104.878C105.024 123.028 105.135 122.996 105.211 122.932C105.287 122.868 105.325 122.778 105.325 122.662ZM108.14 124L107.735 123.415H107.711H107.288V124H106.802V121.9H107.711C107.897 121.9 108.058 121.931 108.194 121.993C108.332 122.055 108.438 122.143 108.512 122.257C108.586 122.371 108.623 122.506 108.623 122.662C108.623 122.818 108.585 122.953 108.509 123.067C108.435 123.179 108.329 123.265 108.191 123.325L108.662 124H108.14ZM108.131 122.662C108.131 122.544 108.093 122.454 108.017 122.392C107.941 122.328 107.83 122.296 107.684 122.296H107.288V123.028H107.684C107.83 123.028 107.941 122.996 108.017 122.932C108.093 122.868 108.131 122.778 108.131 122.662ZM111.234 123.61V124H109.608V121.9H111.195V122.29H110.091V122.746H111.066V123.124H110.091V123.61H111.234ZM114.147 121.9V124H113.748L112.701 122.725V124H112.221V121.9H112.623L113.667 123.175V121.9H114.147ZM115.679 122.296H115.007V121.9H116.837V122.296H116.165V124H115.679V122.296ZM120.774 123.61V124H119.148V121.9H120.735V122.29H119.631V122.746H120.606V123.124H119.631V123.61H120.774ZM123.75 121.9L122.841 124H122.361L121.455 121.9H121.98L122.619 123.4L123.267 121.9H123.75ZM126.151 123.61V124H124.525V121.9H126.112V122.29H125.008V122.746H125.983V123.124H125.008V123.61H126.151ZM129.064 121.9V124H128.665L127.618 122.725V124H127.138V121.9H127.54L128.584 123.175V121.9H129.064ZM130.596 122.296H129.924V121.9H131.754V122.296H131.082V124H130.596V122.296Z" fill="#EEECFF"/>
<path d="M500.3 215.36V216H495.39V215.49L498.3 212.64C498.667 212.28 498.913 211.97 499.04 211.71C499.173 211.443 499.24 211.177 499.24 210.91C499.24 210.497 499.097 210.177 498.81 209.95C498.53 209.717 498.127 209.6 497.6 209.6C496.78 209.6 496.143 209.86 495.69 210.38L495.18 209.94C495.453 209.62 495.8 209.373 496.22 209.2C496.647 209.027 497.127 208.94 497.66 208.94C498.373 208.94 498.937 209.11 499.35 209.45C499.77 209.783 499.98 210.243 499.98 210.83C499.98 211.19 499.9 211.537 499.74 211.87C499.58 212.203 499.277 212.587 498.83 213.02L496.45 215.36H500.3ZM506.105 209V209.51L503.175 216H502.395L505.275 209.64H501.675V210.95H500.965V209H506.105ZM511.04 216.06C510.64 216.06 510.27 215.973 509.93 215.8C509.59 215.627 509.314 215.38 509.1 215.06L509.54 214.56C509.927 215.133 510.43 215.42 511.05 215.42C511.917 215.42 512.35 214.907 512.35 213.88V209.64H509.79V209H513.08V213.85C513.08 214.583 512.907 215.137 512.56 215.51C512.22 215.877 511.714 216.06 511.04 216.06ZM519.544 214.13H515.644L514.804 216H514.034L517.234 209H517.964L521.164 216H520.384L519.544 214.13ZM519.274 213.53L517.594 209.77L515.914 213.53H519.274ZM528.172 209V216H527.562L523.062 210.32V216H522.322V209H522.932L527.442 214.68V209H528.172ZM537.234 215.36V216H532.324V215.49L535.234 212.64C535.6 212.28 535.847 211.97 535.974 211.71C536.107 211.443 536.174 211.177 536.174 210.91C536.174 210.497 536.03 210.177 535.744 209.95C535.464 209.717 535.06 209.6 534.534 209.6C533.714 209.6 533.077 209.86 532.624 210.38L532.114 209.94C532.387 209.62 532.734 209.373 533.154 209.2C533.58 209.027 534.06 208.94 534.594 208.94C535.307 208.94 535.87 209.11 536.284 209.45C536.704 209.783 536.914 210.243 536.914 210.83C536.914 211.19 536.834 211.537 536.674 211.87C536.514 212.203 536.21 212.587 535.764 213.02L533.384 215.36H537.234ZM540.888 216.06C540.348 216.06 539.865 215.917 539.438 215.63C539.018 215.343 538.688 214.933 538.448 214.4C538.215 213.86 538.098 213.227 538.098 212.5C538.098 211.773 538.215 211.143 538.448 210.61C538.688 210.07 539.018 209.657 539.438 209.37C539.865 209.083 540.348 208.94 540.888 208.94C541.428 208.94 541.908 209.083 542.328 209.37C542.755 209.657 543.088 210.07 543.328 210.61C543.568 211.143 543.688 211.773 543.688 212.5C543.688 213.227 543.568 213.86 543.328 214.4C543.088 214.933 542.755 215.343 542.328 215.63C541.908 215.917 541.428 216.06 540.888 216.06ZM540.888 215.4C541.295 215.4 541.651 215.287 541.958 215.06C542.271 214.833 542.515 214.503 542.688 214.07C542.861 213.637 542.948 213.113 542.948 212.5C542.948 211.887 542.861 211.363 542.688 210.93C542.515 210.497 542.271 210.167 541.958 209.94C541.651 209.713 541.295 209.6 540.888 209.6C540.481 209.6 540.121 209.713 539.808 209.94C539.501 210.167 539.261 210.497 539.088 210.93C538.915 211.363 538.828 211.887 538.828 212.5C538.828 213.113 538.915 213.637 539.088 214.07C539.261 214.503 539.501 214.833 539.808 215.06C540.121 215.287 540.481 215.4 540.888 215.4ZM549.48 215.36V216H544.57V215.49L547.48 212.64C547.846 212.28 548.093 211.97 548.22 211.71C548.353 211.443 548.42 211.177 548.42 210.91C548.42 210.497 548.276 210.177 547.99 209.95C547.71 209.717 547.306 209.6 546.78 209.6C545.96 209.6 545.323 209.86 544.87 210.38L544.36 209.94C544.633 209.62 544.98 209.373 545.4 209.2C545.826 209.027 546.306 208.94 546.84 208.94C547.553 208.94 548.116 209.11 548.53 209.45C548.95 209.783 549.16 210.243 549.16 210.83C549.16 211.19 549.08 211.537 548.92 211.87C548.76 212.203 548.456 212.587 548.01 213.02L545.63 215.36H549.48ZM555.163 215.36V216H550.253V215.49L553.163 212.64C553.53 212.28 553.777 211.97 553.903 211.71C554.037 211.443 554.103 211.177 554.103 210.91C554.103 210.497 553.96 210.177 553.673 209.95C553.393 209.717 552.99 209.6 552.463 209.6C551.643 209.6 551.007 209.86 550.553 210.38L550.043 209.94C550.317 209.62 550.663 209.373 551.083 209.2C551.51 209.027 551.99 208.94 552.523 208.94C553.237 208.94 553.8 209.11 554.213 209.45C554.633 209.783 554.843 210.243 554.843 210.83C554.843 211.19 554.763 211.537 554.603 211.87C554.443 212.203 554.14 212.587 553.693 213.02L551.313 215.36H555.163Z" fill="#AAA2FF"/>
<path d="M634.3 88.36V89H629.39V88.49L632.3 85.64C632.667 85.28 632.913 84.97 633.04 84.71C633.173 84.4433 633.24 84.1767 633.24 83.91C633.24 83.4967 633.097 83.1767 632.81 82.95C632.53 82.7167 632.127 82.6 631.6 82.6C630.78 82.6 630.143 82.86 629.69 83.38L629.18 82.94C629.453 82.62 629.8 82.3733 630.22 82.2C630.647 82.0267 631.127 81.94 631.66 81.94C632.373 81.94 632.937 82.11 633.35 82.45C633.77 82.7833 633.98 83.2433 633.98 83.83C633.98 84.19 633.9 84.5367 633.74 84.87C633.58 85.2033 633.277 85.5867 632.83 86.02L630.45 88.36H634.3ZM637.384 81.94C638.31 81.94 639.02 82.2467 639.514 82.86C640.007 83.4667 640.254 84.3267 640.254 85.44C640.254 86.22 640.12 86.88 639.854 87.42C639.587 87.96 639.214 88.37 638.734 88.65C638.254 88.9233 637.694 89.06 637.054 89.06C636.36 89.06 635.807 88.9333 635.394 88.68L635.684 88.1C636.017 88.32 636.47 88.43 637.044 88.43C637.817 88.43 638.424 88.1867 638.864 87.7C639.304 87.2067 639.524 86.4933 639.524 85.56C639.524 85.3867 639.514 85.1967 639.494 84.99C639.32 85.37 639.044 85.6667 638.664 85.88C638.284 86.0867 637.847 86.19 637.354 86.19C636.894 86.19 636.484 86.1033 636.124 85.93C635.77 85.7567 635.494 85.5133 635.294 85.2C635.094 84.88 634.994 84.51 634.994 84.09C634.994 83.6633 635.097 83.2867 635.304 82.96C635.51 82.6333 635.794 82.3833 636.154 82.21C636.52 82.03 636.93 81.94 637.384 81.94ZM637.464 85.58C637.817 85.58 638.127 85.5133 638.394 85.38C638.667 85.2467 638.88 85.0633 639.034 84.83C639.187 84.5967 639.264 84.3367 639.264 84.05C639.264 83.7833 639.19 83.5367 639.044 83.31C638.904 83.0833 638.694 82.9 638.414 82.76C638.134 82.62 637.8 82.55 637.414 82.55C636.907 82.55 636.494 82.69 636.174 82.97C635.86 83.2433 635.704 83.61 635.704 84.07C635.704 84.53 635.86 84.8967 636.174 85.17C636.494 85.4433 636.924 85.58 637.464 85.58ZM645.285 89.06C644.885 89.06 644.515 88.9733 644.175 88.8C643.835 88.6267 643.558 88.38 643.345 88.06L643.785 87.56C644.171 88.1333 644.675 88.42 645.295 88.42C646.161 88.42 646.595 87.9067 646.595 86.88V82.64H644.035V82H647.325V86.85C647.325 87.5833 647.151 88.1367 646.805 88.51C646.465 88.8767 645.958 89.06 645.285 89.06ZM653.788 87.13H649.888L649.048 89H648.278L651.478 82H652.208L655.408 89H654.628L653.788 87.13ZM653.518 86.53L651.838 82.77L650.158 86.53H653.518ZM662.416 82V89H661.806L657.306 83.32V89H656.566V82H657.176L661.686 87.68V82H662.416ZM671.478 88.36V89H666.568V88.49L669.478 85.64C669.844 85.28 670.091 84.97 670.218 84.71C670.351 84.4433 670.418 84.1767 670.418 83.91C670.418 83.4967 670.274 83.1767 669.988 82.95C669.708 82.7167 669.304 82.6 668.778 82.6C667.958 82.6 667.321 82.86 666.868 83.38L666.358 82.94C666.631 82.62 666.978 82.3733 667.398 82.2C667.824 82.0267 668.304 81.94 668.838 81.94C669.551 81.94 670.114 82.11 670.528 82.45C670.948 82.7833 671.158 83.2433 671.158 83.83C671.158 84.19 671.078 84.5367 670.918 84.87C670.758 85.2033 670.454 85.5867 670.008 86.02L667.628 88.36H671.478ZM675.132 89.06C674.592 89.06 674.109 88.9167 673.682 88.63C673.262 88.3433 672.932 87.9333 672.692 87.4C672.459 86.86 672.342 86.2267 672.342 85.5C672.342 84.7733 672.459 84.1433 672.692 83.61C672.932 83.07 673.262 82.6567 673.682 82.37C674.109 82.0833 674.592 81.94 675.132 81.94C675.672 81.94 676.152 82.0833 676.572 82.37C676.999 82.6567 677.332 83.07 677.572 83.61C677.812 84.1433 677.932 84.7733 677.932 85.5C677.932 86.2267 677.812 86.86 677.572 87.4C677.332 87.9333 676.999 88.3433 676.572 88.63C676.152 88.9167 675.672 89.06 675.132 89.06ZM675.132 88.4C675.539 88.4 675.896 88.2867 676.202 88.06C676.516 87.8333 676.759 87.5033 676.932 87.07C677.106 86.6367 677.192 86.1133 677.192 85.5C677.192 84.8867 677.106 84.3633 676.932 83.93C676.759 83.4967 676.516 83.1667 676.202 82.94C675.896 82.7133 675.539 82.6 675.132 82.6C674.726 82.6 674.366 82.7133 674.052 82.94C673.746 83.1667 673.506 83.4967 673.332 83.93C673.159 84.3633 673.072 84.8867 673.072 85.5C673.072 86.1133 673.159 86.6367 673.332 87.07C673.506 87.5033 673.746 87.8333 674.052 88.06C674.366 88.2867 674.726 88.4 675.132 88.4ZM683.724 88.36V89H678.814V88.49L681.724 85.64C682.09 85.28 682.337 84.97 682.464 84.71C682.597 84.4433 682.664 84.1767 682.664 83.91C682.664 83.4967 682.52 83.1767 682.234 82.95C681.954 82.7167 681.55 82.6 681.024 82.6C680.204 82.6 679.567 82.86 679.114 83.38L678.604 82.94C678.877 82.62 679.224 82.3733 679.644 82.2C680.07 82.0267 680.55 81.94 681.084 81.94C681.797 81.94 682.36 82.11 682.774 82.45C683.194 82.7833 683.404 83.2433 683.404 83.83C683.404 84.19 683.324 84.5367 683.164 84.87C683.004 85.2033 682.7 85.5867 682.254 86.02L679.874 88.36H683.724ZM689.407 88.36V89H684.497V88.49L687.407 85.64C687.774 85.28 688.021 84.97 688.147 84.71C688.281 84.4433 688.347 84.1767 688.347 83.91C688.347 83.4967 688.204 83.1767 687.917 82.95C687.637 82.7167 687.234 82.6 686.707 82.6C685.887 82.6 685.251 82.86 684.797 83.38L684.287 82.94C684.561 82.62 684.907 82.3733 685.327 82.2C685.754 82.0267 686.234 81.94 686.767 81.94C687.481 81.94 688.044 82.11 688.457 82.45C688.877 82.7833 689.087 83.2433 689.087 83.83C689.087 84.19 689.007 84.5367 688.847 84.87C688.687 85.2033 688.384 85.5867 687.937 86.02L685.557 88.36H689.407Z" fill="#AAA2FF"/>
<path d="M761.9 199C762.633 199.04 763.19 199.24 763.57 199.6C763.957 199.953 764.15 200.417 764.15 200.99C764.15 201.39 764.053 201.747 763.86 202.06C763.667 202.367 763.38 202.61 763 202.79C762.62 202.97 762.157 203.06 761.61 203.06C761.103 203.06 760.623 202.98 760.17 202.82C759.723 202.653 759.363 202.433 759.09 202.16L759.44 201.59C759.673 201.83 759.983 202.027 760.37 202.18C760.757 202.327 761.17 202.4 761.61 202.4C762.183 202.4 762.627 202.277 762.94 202.03C763.253 201.777 763.41 201.43 763.41 200.99C763.41 200.557 763.253 200.217 762.94 199.97C762.627 199.723 762.153 199.6 761.52 199.6H761.02V199.07L762.96 196.64H759.38V196H763.88V196.51L761.9 199ZM767.955 203.06C767.415 203.06 766.931 202.917 766.505 202.63C766.085 202.343 765.755 201.933 765.515 201.4C765.281 200.86 765.165 200.227 765.165 199.5C765.165 198.773 765.281 198.143 765.515 197.61C765.755 197.07 766.085 196.657 766.505 196.37C766.931 196.083 767.415 195.94 767.955 195.94C768.495 195.94 768.975 196.083 769.395 196.37C769.821 196.657 770.155 197.07 770.395 197.61C770.635 198.143 770.755 198.773 770.755 199.5C770.755 200.227 770.635 200.86 770.395 201.4C770.155 201.933 769.821 202.343 769.395 202.63C768.975 202.917 768.495 203.06 767.955 203.06ZM767.955 202.4C768.361 202.4 768.718 202.287 769.025 202.06C769.338 201.833 769.581 201.503 769.755 201.07C769.928 200.637 770.015 200.113 770.015 199.5C770.015 198.887 769.928 198.363 769.755 197.93C769.581 197.497 769.338 197.167 769.025 196.94C768.718 196.713 768.361 196.6 767.955 196.6C767.548 196.6 767.188 196.713 766.875 196.94C766.568 197.167 766.328 197.497 766.155 197.93C765.981 198.363 765.895 198.887 765.895 199.5C765.895 200.113 765.981 200.637 766.155 201.07C766.328 201.503 766.568 201.833 766.875 202.06C767.188 202.287 767.548 202.4 767.955 202.4ZM775.773 203.06C775.373 203.06 775.003 202.973 774.663 202.8C774.323 202.627 774.046 202.38 773.833 202.06L774.273 201.56C774.659 202.133 775.163 202.42 775.783 202.42C776.649 202.42 777.083 201.907 777.083 200.88V196.64H774.523V196H777.813V200.85C777.813 201.583 777.639 202.137 777.293 202.51C776.953 202.877 776.446 203.06 775.773 203.06ZM784.276 201.13H780.376L779.536 203H778.766L781.966 196H782.696L785.896 203H785.116L784.276 201.13ZM784.006 200.53L782.326 196.77L780.646 200.53H784.006ZM792.904 196V203H792.294L787.794 197.32V203H787.054V196H787.664L792.174 201.68V196H792.904ZM801.966 202.36V203H797.056V202.49L799.966 199.64C800.333 199.28 800.579 198.97 800.706 198.71C800.839 198.443 800.906 198.177 800.906 197.91C800.906 197.497 800.763 197.177 800.476 196.95C800.196 196.717 799.793 196.6 799.266 196.6C798.446 196.6 797.809 196.86 797.356 197.38L796.846 196.94C797.119 196.62 797.466 196.373 797.886 196.2C798.313 196.027 798.793 195.94 799.326 195.94C800.039 195.94 800.603 196.11 801.016 196.45C801.436 196.783 801.646 197.243 801.646 197.83C801.646 198.19 801.566 198.537 801.406 198.87C801.246 199.203 800.943 199.587 800.496 200.02L798.116 202.36H801.966ZM805.621 203.06C805.081 203.06 804.597 202.917 804.171 202.63C803.751 202.343 803.421 201.933 803.181 201.4C802.947 200.86 802.831 200.227 802.831 199.5C802.831 198.773 802.947 198.143 803.181 197.61C803.421 197.07 803.751 196.657 804.171 196.37C804.597 196.083 805.081 195.94 805.621 195.94C806.161 195.94 806.641 196.083 807.061 196.37C807.487 196.657 807.821 197.07 808.061 197.61C808.301 198.143 808.421 198.773 808.421 199.5C808.421 200.227 808.301 200.86 808.061 201.4C807.821 201.933 807.487 202.343 807.061 202.63C806.641 202.917 806.161 203.06 805.621 203.06ZM805.621 202.4C806.027 202.4 806.384 202.287 806.691 202.06C807.004 201.833 807.247 201.503 807.421 201.07C807.594 200.637 807.681 200.113 807.681 199.5C807.681 198.887 807.594 198.363 807.421 197.93C807.247 197.497 807.004 197.167 806.691 196.94C806.384 196.713 806.027 196.6 805.621 196.6C805.214 196.6 804.854 196.713 804.541 196.94C804.234 197.167 803.994 197.497 803.821 197.93C803.647 198.363 803.561 198.887 803.561 199.5C803.561 200.113 803.647 200.637 803.821 201.07C803.994 201.503 804.234 201.833 804.541 202.06C804.854 202.287 805.214 202.4 805.621 202.4ZM814.212 202.36V203H809.302V202.49L812.212 199.64C812.579 199.28 812.825 198.97 812.952 198.71C813.085 198.443 813.152 198.177 813.152 197.91C813.152 197.497 813.009 197.177 812.722 196.95C812.442 196.717 812.039 196.6 811.512 196.6C810.692 196.6 810.055 196.86 809.602 197.38L809.092 196.94C809.365 196.62 809.712 196.373 810.132 196.2C810.559 196.027 811.039 195.94 811.572 195.94C812.285 195.94 812.849 196.11 813.262 196.45C813.682 196.783 813.892 197.243 813.892 197.83C813.892 198.19 813.812 198.537 813.652 198.87C813.492 199.203 813.189 199.587 812.742 200.02L810.362 202.36H814.212ZM819.896 202.36V203H814.986V202.49L817.896 199.64C818.262 199.28 818.509 198.97 818.636 198.71C818.769 198.443 818.836 198.177 818.836 197.91C818.836 197.497 818.692 197.177 818.406 196.95C818.126 196.717 817.722 196.6 817.196 196.6C816.376 196.6 815.739 196.86 815.286 197.38L814.776 196.94C815.049 196.62 815.396 196.373 815.816 196.2C816.242 196.027 816.722 195.94 817.256 195.94C817.969 195.94 818.532 196.11 818.946 196.45C819.366 196.783 819.576 197.243 819.576 197.83C819.576 198.19 819.496 198.537 819.336 198.87C819.176 199.203 818.872 199.587 818.426 200.02L816.046 202.36H819.896Z" fill="#AAA2FF"/>
<path d="M141.354 123.354C141.549 123.158 141.549 122.842 141.354 122.646L138.172 119.464C137.976 119.269 137.66 119.269 137.464 119.464C137.269 119.66 137.269 119.976 137.464 120.172L140.293 123L137.464 125.828C137.269 126.024 137.269 126.34 137.464 126.536C137.66 126.731 137.976 126.731 138.172 126.536L141.354 123.354ZM140 123.5H141V122.5H140V123.5Z" fill="white"/>
<path d="M145.354 123.354C145.549 123.158 145.549 122.842 145.354 122.646L142.172 119.464C141.976 119.269 141.66 119.269 141.464 119.464C141.269 119.66 141.269 119.976 141.464 120.172L144.293 123L141.464 125.828C141.269 126.024 141.269 126.34 141.464 126.536C141.66 126.731 141.976 126.731 142.172 126.536L145.354 123.354ZM144 123.5H145V122.5H144V123.5Z" fill="white"/>
<defs>
<linearGradient id="paint0_linear_754:91208" x1="883" y1="89" x2="863" y2="89" gradientUnits="userSpaceOnUse">
<stop stop-color="#CFA6FE"/>
<stop offset="1" stop-color="#796BF1"/>
</linearGradient>
<linearGradient id="paint1_linear_754:91208" x1="72" y1="123" x2="870" y2="123.001" gradientUnits="userSpaceOnUse">
<stop stop-color="#7367F0"/>
<stop offset="1" stop-color="#ADA5FF"/>
</linearGradient>
<linearGradient id="paint2_linear_754:91208" x1="75" y1="110" x2="75" y2="136" gradientUnits="userSpaceOnUse">
<stop stop-color="#7367F0"/>
<stop offset="1" stop-color="#D5AAFF"/>
</linearGradient>
<linearGradient id="paint3_linear_754:91208" x1="1.05715e-07" y1="1.00001" x2="46" y2="1.00002" gradientUnits="userSpaceOnUse">
<stop stop-color="#7367F0"/>
<stop offset="1" stop-color="#ADA5FF"/>
</linearGradient>
<linearGradient id="paint4_linear_754:91208" x1="1.05715e-07" y1="1.00001" x2="46" y2="1.00002" gradientUnits="userSpaceOnUse">
<stop stop-color="#7367F0"/>
<stop offset="1" stop-color="#ADA5FF"/>
</linearGradient>
<linearGradient id="paint5_linear_754:91208" x1="1.05715e-07" y1="1.00001" x2="46" y2="1.00002" gradientUnits="userSpaceOnUse">
<stop stop-color="#7367F0"/>
<stop offset="1" stop-color="#ADA5FF"/>
</linearGradient>
<linearGradient id="paint6_linear_754:91208" x1="1.01119e-07" y1="1.00001" x2="44" y2="1.00002" gradientUnits="userSpaceOnUse">
<stop stop-color="#7367F0"/>
<stop offset="1" stop-color="#ADA5FF"/>
</linearGradient>
<linearGradient id="paint7_linear_754:91208" x1="1.01119e-07" y1="1.00001" x2="44" y2="1.00002" gradientUnits="userSpaceOnUse">
<stop stop-color="#7367F0"/>
<stop offset="1" stop-color="#ADA5FF"/>
</linearGradient>
<linearGradient id="paint8_linear_754:91208" x1="1.03417e-07" y1="1.00001" x2="45" y2="1.00002" gradientUnits="userSpaceOnUse">
<stop stop-color="#7367F0"/>
<stop offset="1" stop-color="#ADA5FF"/>
</linearGradient>
<linearGradient id="paint9_linear_754:91208" x1="4.16341e-08" y1="1.00001" x2="18.1163" y2="1.00001" gradientUnits="userSpaceOnUse">
<stop stop-color="#7367F0"/>
<stop offset="1" stop-color="#ADA5FF"/>
</linearGradient>
<linearGradient id="paint10_linear_754:91208" x1="4.16341e-08" y1="1.00001" x2="18.1163" y2="1.00001" gradientUnits="userSpaceOnUse">
<stop stop-color="#7367F0"/>
<stop offset="1" stop-color="#ADA5FF"/>
</linearGradient>
<linearGradient id="paint11_linear_754:91208" x1="4.16341e-08" y1="1.00001" x2="18.1163" y2="1.00001" gradientUnits="userSpaceOnUse">
<stop stop-color="#7367F0"/>
<stop offset="1" stop-color="#ADA5FF"/>
</linearGradient>
<linearGradient id="paint12_linear_754:91208" x1="9.19265e-08" y1="1.00001" x2="40" y2="1.00002" gradientUnits="userSpaceOnUse">
<stop stop-color="#7367F0"/>
<stop offset="1" stop-color="#ADA5FF"/>
</linearGradient>
<linearGradient id="paint13_linear_754:91208" x1="4.16341e-08" y1="1.00001" x2="18.1163" y2="1.00001" gradientUnits="userSpaceOnUse">
<stop stop-color="#7367F0"/>
<stop offset="1" stop-color="#ADA5FF"/>
</linearGradient>
<linearGradient id="paint14_linear_754:91208" x1="4.16341e-08" y1="1.00001" x2="18.1163" y2="1.00001" gradientUnits="userSpaceOnUse">
<stop stop-color="#7367F0"/>
<stop offset="1" stop-color="#ADA5FF"/>
</linearGradient>
<linearGradient id="paint15_linear_754:91208" x1="735" y1="165.586" x2="753.116" y2="165.586" gradientUnits="userSpaceOnUse">
<stop stop-color="#7367F0"/>
<stop offset="1" stop-color="#ADA5FF"/>
</linearGradient>
<linearGradient id="paint16_linear_754:91208" x1="4.16341e-08" y1="1.00001" x2="18.1163" y2="1.00001" gradientUnits="userSpaceOnUse">
<stop stop-color="#7367F0"/>
<stop offset="1" stop-color="#ADA5FF"/>
</linearGradient>
<linearGradient id="paint17_linear_754:91208" x1="4.16341e-08" y1="1.00001" x2="18.1163" y2="1.00001" gradientUnits="userSpaceOnUse">
<stop stop-color="#7367F0"/>
<stop offset="1" stop-color="#ADA5FF"/>
</linearGradient>
<linearGradient id="paint18_linear_754:91208" x1="4.16341e-08" y1="1.00001" x2="18.1163" y2="1.00001" gradientUnits="userSpaceOnUse">
<stop stop-color="#7367F0"/>
<stop offset="1" stop-color="#ADA5FF"/>
</linearGradient>
<linearGradient id="paint19_linear_754:91208" x1="4.16341e-08" y1="1.00001" x2="18.1163" y2="1.00001" gradientUnits="userSpaceOnUse">
<stop stop-color="#7367F0"/>
<stop offset="1" stop-color="#ADA5FF"/>
</linearGradient>
<linearGradient id="paint20_linear_754:91208" x1="4.16341e-08" y1="1.00001" x2="18.1163" y2="1.00001" gradientUnits="userSpaceOnUse">
<stop stop-color="#7367F0"/>
<stop offset="1" stop-color="#ADA5FF"/>
</linearGradient>
<linearGradient id="paint21_linear_754:91208" x1="4.16341e-08" y1="1.00001" x2="18.1163" y2="1.00001" gradientUnits="userSpaceOnUse">
<stop stop-color="#7367F0"/>
<stop offset="1" stop-color="#ADA5FF"/>
</linearGradient>
<linearGradient id="paint22_linear_754:91208" x1="4.16341e-08" y1="1.00001" x2="18.1163" y2="1.00001" gradientUnits="userSpaceOnUse">
<stop stop-color="#7367F0"/>
<stop offset="1" stop-color="#ADA5FF"/>
</linearGradient>
<linearGradient id="paint23_linear_754:91208" x1="339" y1="114" x2="339" y2="132" gradientUnits="userSpaceOnUse">
<stop stop-color="#7367F0"/>
<stop offset="1" stop-color="#D5AAFF"/>
</linearGradient>
<linearGradient id="paint24_linear_754:91208" x1="75" y1="114" x2="75" y2="132" gradientUnits="userSpaceOnUse">
<stop stop-color="#7367F0"/>
<stop offset="1" stop-color="#D5AAFF"/>
</linearGradient>
<linearGradient id="paint25_linear_754:91208" x1="207" y1="114" x2="207" y2="132" gradientUnits="userSpaceOnUse">
<stop stop-color="#7367F0"/>
<stop offset="1" stop-color="#D5AAFF"/>
</linearGradient>
<linearGradient id="paint26_linear_754:91208" x1="471" y1="114" x2="471" y2="132" gradientUnits="userSpaceOnUse">
<stop stop-color="#7367F0"/>
<stop offset="1" stop-color="#D5AAFF"/>
</linearGradient>
<linearGradient id="paint27_linear_754:91208" x1="735" y1="114" x2="735" y2="132" gradientUnits="userSpaceOnUse">
<stop stop-color="#7367F0"/>
<stop offset="1" stop-color="#D5AAFF"/>
</linearGradient>
<linearGradient id="paint28_linear_754:91208" x1="603" y1="114" x2="603" y2="132" gradientUnits="userSpaceOnUse">
<stop stop-color="#7367F0"/>
<stop offset="1" stop-color="#D5AAFF"/>
</linearGradient>
<linearGradient id="paint29_linear_754:91208" x1="867" y1="114" x2="867" y2="132" gradientUnits="userSpaceOnUse">
<stop stop-color="#7367F0"/>
<stop offset="1" stop-color="#D5AAFF"/>
</linearGradient>
<linearGradient id="paint30_linear_754:91208" x1="3" y1="0" x2="3" y2="6" gradientUnits="userSpaceOnUse">
<stop stop-color="#7367F0"/>
<stop offset="1" stop-color="#D5AAFF"/>
</linearGradient>
<linearGradient id="paint31_linear_754:91208" x1="3" y1="0" x2="3" y2="6" gradientUnits="userSpaceOnUse">
<stop stop-color="#7367F0"/>
<stop offset="1" stop-color="#D5AAFF"/>
</linearGradient>
<linearGradient id="paint32_linear_754:91208" x1="3" y1="0" x2="3" y2="6" gradientUnits="userSpaceOnUse">
<stop stop-color="#7367F0"/>
<stop offset="1" stop-color="#D5AAFF"/>
</linearGradient>
<linearGradient id="paint33_linear_754:91208" x1="3" y1="0" x2="3" y2="6" gradientUnits="userSpaceOnUse">
<stop stop-color="#7367F0"/>
<stop offset="1" stop-color="#D5AAFF"/>
</linearGradient>
<linearGradient id="paint34_linear_754:91208" x1="3" y1="0" x2="3" y2="6" gradientUnits="userSpaceOnUse">
<stop stop-color="#7367F0"/>
<stop offset="1" stop-color="#D5AAFF"/>
</linearGradient>
<linearGradient id="paint35_linear_754:91208" x1="3" y1="0" x2="3" y2="6" gradientUnits="userSpaceOnUse">
<stop stop-color="#7367F0"/>
<stop offset="1" stop-color="#D5AAFF"/>
</linearGradient>
<linearGradient id="paint36_linear_754:91208" x1="3" y1="0" x2="3" y2="6" gradientUnits="userSpaceOnUse">
<stop stop-color="#7367F0"/>
<stop offset="1" stop-color="#D5AAFF"/>
</linearGradient>
<linearGradient id="paint37_linear_754:91208" x1="749" y1="149" x2="749" y2="155" gradientUnits="userSpaceOnUse">
<stop stop-color="#7367F0"/>
<stop offset="1" stop-color="#D5AAFF"/>
</linearGradient>
<linearGradient id="paint38_linear_754:91208" x1="3" y1="0" x2="3" y2="6" gradientUnits="userSpaceOnUse">
<stop stop-color="#7367F0"/>
<stop offset="1" stop-color="#D5AAFF"/>
</linearGradient>
<linearGradient id="paint39_linear_754:91208" x1="3" y1="0" x2="3" y2="6" gradientUnits="userSpaceOnUse">
<stop stop-color="#7367F0"/>
<stop offset="1" stop-color="#D5AAFF"/>
</linearGradient>
<linearGradient id="paint40_linear_754:91208" x1="3" y1="0" x2="3" y2="6" gradientUnits="userSpaceOnUse">
<stop stop-color="#7367F0"/>
<stop offset="1" stop-color="#D5AAFF"/>
</linearGradient>
<linearGradient id="paint41_linear_754:91208" x1="370" y1="48" x2="460" y2="48" gradientUnits="userSpaceOnUse">
<stop stop-color="#7B6DF1"/>
<stop offset="1" stop-color="#CAA3FE"/>
</linearGradient>
<linearGradient id="paint42_linear_754:91208" x1="495" y1="172" x2="585" y2="172" gradientUnits="userSpaceOnUse">
<stop stop-color="#7B6DF1"/>
<stop offset="1" stop-color="#CAA3FE"/>
</linearGradient>
<linearGradient id="paint43_linear_754:91208" x1="629" y1="59.5" x2="719" y2="59.5" gradientUnits="userSpaceOnUse">
<stop stop-color="#7B6DF1"/>
<stop offset="1" stop-color="#CAA3FE"/>
</linearGradient>
<linearGradient id="paint44_linear_754:91208" x1="759" y1="173.5" x2="849" y2="173.5" gradientUnits="userSpaceOnUse">
<stop stop-color="#7B6DF1"/>
<stop offset="1" stop-color="#CAA3FE"/>
</linearGradient>
<linearGradient id="paint45_linear_754:91208" x1="98" y1="47" x2="201.5" y2="47" gradientUnits="userSpaceOnUse">
<stop stop-color="#7B6DF1"/>
<stop offset="1" stop-color="#CAA3FE"/>
</linearGradient>
<linearGradient id="paint46_linear_754:91208" x1="220" y1="172" x2="323.5" y2="172" gradientUnits="userSpaceOnUse">
<stop stop-color="#7B6DF1"/>
<stop offset="1" stop-color="#CAA3FE"/>
</linearGradient>
</defs>
</svg>
